<?xml version="1.0" encoding="utf-8"?>
<!-- Generator: Adobe Illustrator 16.0.0, SVG Export Plug-In . SVG Version: 6.00 Build 0)  -->
<!DOCTYPE svg PUBLIC "-//W3C//DTD SVG 1.1//EN" "http://www.w3.org/Graphics/SVG/1.1/DTD/svg11.dtd">
<svg version="1.1" id="图层_1" xmlns="http://www.w3.org/2000/svg" xmlns:xlink="http://www.w3.org/1999/xlink" x="0px" y="0px"
	 width="610px" height="981px" viewBox="0 0 610 981" enable-background="new 0 0 610 981" xml:space="preserve">
<polyline id="p1" fill="#7D00E7" points="16.622,13.353 16.622,17.869 4.758,17.869 4.758,3.73 16.622,3.73 16.622,13.353 "/>
<polyline id="p4" fill="#EAEC00" points="16.075,93.08 16.075,97.595 4.21,97.595 4.21,83.456 16.075,83.456 16.075,93.08 "/>
<polyline id="p5" fill="#FF4500" points="16.62,119.255 16.62,123.769 4.76,123.769 4.76,109.631 16.62,109.631 16.62,119.255 "/>
<polyline id="p9" fill="#FF00FF" points="16.623,230.23 16.623,234.746 4.758,234.746 4.758,220.607 16.623,220.607 16.623,230.23 
	"/>
<rect id="p2" x="4.211" y="29.459" fill="#1517FF" width="11.864" height="14.139"/>
<rect id="p6" x="4.759" y="137.324" fill="#00DEDC" width="11.863" height="14.138"/>
<polyline id="p3" fill="#008C00" points="16.076,66.401 16.076,70.917 4.209,70.917 4.209,56.777 16.076,56.777 16.076,66.401 "/>
<rect id="p7" x="4.759" y="165.961" fill="#FF0000" width="11.863" height="14.14"/>
<rect id="p8" x="4.758" y="192.706" fill="#822800" width="11.864" height="14.14"/>
<polyline id="p10" fill="#A8A8A8" points="16.623,257.218 16.623,261.733 4.758,261.733 4.758,247.594 16.623,247.594 
	16.623,257.218 "/>
<text transform="matrix(0.8671 0 0 1 22.0549 15.0271)" fill="#7D00E7" font-family="'Arial-BoldMT'" font-size="13.3806">Go to work</text>
<text transform="matrix(0.8671 0 0 1 21.3752 69.741)" fill="#008C00" font-family="'Arial-BoldMT'" font-size="13.3806">Go home</text>
<text transform="matrix(0.8671 0 0 1 21.2795 149.7429)" fill="#00DEDC" font-family="'Arial-BoldMT'" font-size="13.3806">Business / Affairs</text>
<text transform="matrix(0.8671 0 0 1 21.1584 231.9675)" fill="#FF00FF" font-family="'Arial-BoldMT'" font-size="13.3806">Pick up / Drop off</text>
<text transform="matrix(0.8671 0 0 1 21.7014 178.7644)" fill="#FF0000" font-family="'Arial-BoldMT'" font-size="13.3806">Visiting friends</text>
<text transform="matrix(0.8671 0 0 1 21.2795 121.1716)" fill="#FF4500" font-family="'Arial-BoldMT'" font-size="13.3806">Have dinner / Entertain</text>
<text transform="matrix(0.8671 0 0 1 21.3743 41.3044)" fill="#1517FF" font-family="'Arial-BoldMT'" font-size="13.3806">Go to school</text>
<text transform="matrix(0.8671 0 0 1 21.3752 95.4812)" fill="#EAEC00" font-family="'Arial-BoldMT'" font-size="13.3806">Go shopping</text>
<text transform="matrix(0.8671 0 0 1 22.0549 205.1404)" fill="#822800" font-family="'Arial-BoldMT'" font-size="13.3806">Go to hospital</text>
<text transform="matrix(0.8671 0 0 1 22.0549 259.0779)" fill="#A8A8A8" font-family="'Arial-BoldMT'" font-size="13.3806">Others</text>
</svg>
