<?xml version="1.0" encoding="utf-8"?>
<!-- Generator: Adobe Illustrator 16.0.0, SVG Export Plug-In . SVG Version: 6.00 Build 0)  -->
<!DOCTYPE svg PUBLIC "-//W3C//DTD SVG 1.1//EN" "http://www.w3.org/Graphics/SVG/1.1/DTD/svg11.dtd">
<svg version="1.1" id="图层_1" xmlns="http://www.w3.org/2000/svg" xmlns:xlink="http://www.w3.org/1999/xlink" x="0px" y="0px"
	 width="610px" height="981px" viewBox="0 0 610 981" enable-background="new 0 0 610 981" xml:space="preserve">
<g id="title">
	<text transform="matrix(0.9388 0 0 1 107.1853 36.5256)" font-family="'ArialMT'" font-size="30.7177">City Folding VA System</text>
	
		<text transform="matrix(0.9388 0 0 1 107.1853 36.5256)" fill="none" stroke="#0000FF" stroke-miterlimit="10" font-family="'ArialMT'" font-size="30.7177">City Folding VA System</text>
</g>
<g id="job">
	<polyline id="attr_job_1" fill="#5D5D5D" points="131.67,292.867 131.67,296.698 120.716,296.698 120.716,284.702 131.67,284.702 
		131.67,292.867 	"/>
	<polyline id="attr_job_2" fill="#5D5D5D" points="225.057,292.867 225.057,296.698 214.102,296.698 214.102,284.702 
		225.057,284.702 225.057,292.867 	"/>
	<polyline id="attr_job_6" fill="#5D5D5D" points="304.461,291.922 304.461,295.752 293.51,295.752 293.51,283.757 304.461,283.757 
		304.461,291.922 	"/>
	<polyline id="attr_job_4" fill="#5D5D5D" points="392.274,292.867 392.274,296.698 381.319,296.698 381.319,284.702 
		392.274,284.702 392.274,292.867 	"/>
	<rect id="attr_job_8" x="120.716" y="309.531" fill="#5D5D5D" width="10.954" height="11.996"/>
	<rect id="attr_job_7" x="214.225" y="310.476" fill="#5D5D5D" width="10.953" height="11.995"/>
	<polyline id="attr_job_5" fill="#5D5D5D" points="461.923,292.867 461.923,296.698 450.966,296.698 450.966,284.702 
		461.923,284.702 461.923,292.867 	"/>
	<rect id="attr_job_3" x="293.51" y="309.531" fill="#5D5D5D" width="10.953" height="11.996"/>
	<rect id="attr_job_9" x="450.967" y="309.531" fill="#5D5D5D" width="10.954" height="11.996"/>
	<text transform="matrix(0.9436 0 0 1 134.8992 296.2859)" fill="#000DFF" font-family="'ArialMT'" font-size="11.3522">Management</text>
	<text transform="matrix(0.9436 0 0 1 228.7991 295.3401)" fill="#000DFF" font-family="'ArialMT'" font-size="11.3522">Technician</text>
	<text transform="matrix(0.9436 0 0 1 308.0764 320.5793)" fill="#000DFF" font-family="'ArialMT'" font-size="11.3522">Government official</text>
	<text transform="matrix(0.9436 0 0 1 396.4172 295.3401)" fill="#000DFF" font-family="'ArialMT'" font-size="11.3522">Servant</text>
	
		<line fill="none" stroke="#000000" stroke-width="0.5398" stroke-miterlimit="10" x1="76.358" y1="325.613" x2="503.915" y2="325.613"/>
	<text transform="matrix(0.9436 0 0 1 466.4954 296.2029)" fill="#000DFF" font-family="'ArialMT'" font-size="11.3522">Worker</text>
	<text transform="matrix(0.9436 0 0 1 308.0764 295.3401)" fill="#000DFF" font-family="'ArialMT'" font-size="11.3522">Businessman</text>
	<text transform="matrix(0.9436 0 0 1 134.0588 320.5793)" fill="#000DFF" font-family="'ArialMT'" font-size="11.3522">Retirement</text>
	<text transform="matrix(0.9436 0 0 1 466.8206 319.5984)" fill="#000DFF" font-family="'ArialMT'" font-size="11.3522">Others</text>
	<text transform="matrix(0.9436 0 0 1 230.8801 320.5447)" fill="#000DFF" font-family="'ArialMT'" font-size="11.3522">Student</text>
	<text transform="matrix(0.9436 0 0 1 76.3572 293.365)" font-family="'ArialMT'" font-size="17.0283">JOB</text>
</g>
<g id="edu">
	<polyline id="attr_edu_1" fill="#5D5D5D" points="131.67,265.433 131.67,269.263 120.716,269.263 120.716,257.267 131.67,257.267 
		131.67,265.433 	"/>
	<rect id="attr_edu_2" x="214.223" y="257.267" fill="#5D5D5D" width="10.954" height="11.996"/>
	<rect id="attr_edu_3" x="294.233" y="256.322" fill="#5D5D5D" width="10.954" height="11.995"/>
	<rect id="attr_edu_4" x="381.319" y="256.322" fill="#5D5D5D" width="10.954" height="11.995"/>
	
		<line fill="none" stroke="#000000" stroke-width="0.5398" stroke-miterlimit="10" x1="14.824" y1="272.636" x2="503.915" y2="272.636"/>
	<text transform="matrix(0.9436 0 0 1 396.4172 267.1443)" fill="#000DFF" font-family="'ArialMT'" font-size="11.3522">Graduate</text>
	<text transform="matrix(0.9436 0 0 1 308.4456 267.9055)" fill="#000DFF" font-family="'ArialMT'" font-size="11.3522">Undergradate</text>
	<text transform="matrix(0.9436 0 0 1 136.0002 268.0906)" fill="#000DFF" font-family="'ArialMT'" font-size="11.3522">Primary/middle</text>
	<text transform="matrix(0.9436 0 0 1 229.7024 268.0906)" fill="#000DFF" font-family="'ArialMT'" font-size="11.3522">High school</text>
	<text transform="matrix(0.9436 0 0 1 14.824 265.9299)" font-family="'ArialMT'" font-size="17.0283">EDUCATION</text>
</g>
<g id="gender">
	<rect id="attr_gender_1" x="121.24" y="76.59" fill="#5D5D5D" width="10.954" height="11.999"/>
	<rect id="attr_gender_2" x="213.274" y="77.535" fill="#5D5D5D" width="10.954" height="11.999"/>
	<text transform="matrix(0.9436 0 0 1 137.9602 87.3176)" fill="#000DFF" font-family="'ArialMT'" font-size="11.3522">Male</text>
	
		<line fill="none" stroke="#000000" stroke-width="0.5398" stroke-miterlimit="10" x1="42.497" y1="91.947" x2="505.533" y2="91.947"/>
	<text transform="matrix(0.9436 0 0 1 229.26 87.3176)" fill="#000DFF" font-family="'ArialMT'" font-size="11.3522">Female</text>
	<text transform="matrix(0.9436 0 0 1 42.4968 81.5403)" font-family="'ArialMT'" font-size="17.0283">GENDER</text>
</g>
<g id="age">
	<rect id="attr_age_1" x="121.24" y="105.859" fill="#5D5D5D" width="10.954" height="11.996"/>
	<rect id="attr_age_2" x="213.211" y="105.859" fill="#5D5D5D" width="10.955" height="11.996"/>
	<rect id="attr_age_3" x="293.51" y="105.235" fill="#5D5D5D" width="10.954" height="11.995"/>
	<rect id="attr_age_4" x="381.319" y="105.859" fill="#5D5D5D" width="10.954" height="11.996"/>
	
		<line fill="none" stroke="#000000" stroke-width="0.5398" stroke-miterlimit="10" x1="75.521" y1="121.273" x2="504.807" y2="121.273"/>
	<text transform="matrix(0.9436 0 0 1 138.1873 116.5422)" fill="#000DFF" font-family="'ArialMT'" font-size="11.3522">0-18</text>
	<text transform="matrix(0.9436 0 0 1 228.2024 116.5422)" fill="#000DFF" font-family="'ArialMT'" font-size="11.3522">19-40</text>
	<text transform="matrix(0.9436 0 0 1 311.3879 116.5422)" fill="#000DFF" font-family="'ArialMT'" font-size="11.3522">41-60</text>
	<text transform="matrix(0.9436 0 0 1 397.1926 117.4885)" fill="#000DFF" font-family="'ArialMT'" font-size="11.3522">60--</text>
	<text transform="matrix(0.9436 0 0 1 76.4177 111.8123)" font-family="'ArialMT'" font-size="17.0283">AGE</text>
</g>
<g id="resident">
	<rect id="attr_resident_1" x="121.018" y="135.524" fill="#5D5D5D" width="10.953" height="11.995"/>
	<rect id="attr_resident_2" x="213.21" y="135.524" fill="#5D5D5D" width="10.954" height="11.995"/>
	<rect id="attr_resident_3" x="294.233" y="136.47" fill="#5D5D5D" width="10.954" height="11.995"/>
	
		<line fill="none" stroke="#000000" stroke-width="0.5398" stroke-miterlimit="10" x1="29.108" y1="152.491" x2="504.807" y2="152.491"/>
	<text transform="matrix(0.9436 0 0 1 138.47 147.1511)" fill="#000DFF" font-family="'ArialMT'" font-size="11.3522">Local</text>
	<text transform="matrix(0.9436 0 0 1 228.2024 147.1511)" fill="#000DFF" font-family="'ArialMT'" font-size="11.3522">Stranger</text>
	<text transform="matrix(0.9436 0 0 1 310.4944 147.1511)" fill="#000DFF" font-family="'ArialMT'" font-size="11.3522">Temporary</text>
	<text transform="matrix(0.9436 0 0 1 29.9993 141.7844)" font-family="'ArialMT'" font-size="17.0283">RESIDENT</text>
</g>
<g id="income">
	<rect id="attr_income_1" x="121.107" y="165.459" fill="#5D5D5D" width="10.955" height="11.995"/>
	<rect id="attr_income_2" x="213.21" y="166.405" fill="#5D5D5D" width="10.954" height="11.996"/>
	<rect id="attr_income_3" x="294.405" y="167.351" fill="#5D5D5D" width="10.952" height="11.995"/>
	<rect id="attr_income_4" x="381.32" y="167.351" fill="#5D5D5D" width="10.953" height="11.995"/>
	<rect id="attr_income_5" x="450.967" y="167.351" fill="#5D5D5D" width="10.954" height="11.995"/>
	
		<line fill="none" stroke="#000000" stroke-width="0.5398" stroke-miterlimit="10" x1="45.432" y1="182.184" x2="505.533" y2="182.184"/>
	<text transform="matrix(0.9436 0 0 1 136.4314 177.4539)" fill="#000DFF" font-family="'ArialMT'" font-size="11.3522">0-100k</text>
	<text transform="matrix(0.9436 0 0 1 225.5237 177.4539)" fill="#000DFF" font-family="'ArialMT'" font-size="11.3522">100-200k</text>
	<text transform="matrix(0.9436 0 0 1 310.0999 176.5076)" fill="#000DFF" font-family="'ArialMT'" font-size="11.3522">200-300k</text>
	<text transform="matrix(0.9436 0 0 1 396.4172 177.4539)" fill="#000DFF" font-family="'ArialMT'" font-size="11.3522">300-500k</text>
	<text transform="matrix(0.9436 0 0 1 466.4954 177.4539)" fill="#000DFF" font-family="'ArialMT'" font-size="11.3522">500k--</text>
	<text transform="matrix(0.9436 0 0 1 45.4314 173.0032)" font-family="'ArialMT'" font-size="17.0283">INCOME</text>
</g>
<g id="house">
	<rect id="attr_house_1" x="121.24" y="197.68" fill="#5D5D5D" width="10.954" height="11.999"/>
	<rect id="attr_house_2" x="214.103" y="198.626" fill="#5D5D5D" width="10.955" height="11.999"/>
	<rect id="attr_house_3" x="293.51" y="198.626" fill="#5D5D5D" width="10.954" height="11.999"/>
	
		<line fill="none" stroke="#000000" stroke-width="0.5398" stroke-miterlimit="10" x1="51.424" y1="213.983" x2="503.915" y2="213.983"/>
	<text transform="matrix(0.9436 0 0 1 136.4509 209.2527)" fill="#000DFF" font-family="'ArialMT'" font-size="11.3522">Own</text>
	<text transform="matrix(0.9436 0 0 1 228.9202 209.2527)" fill="#000DFF" font-family="'ArialMT'" font-size="11.3522">Rent</text>
	<text transform="matrix(0.9436 0 0 1 312.7014 209.2527)" fill="#000DFF" font-family="'ArialMT'" font-size="11.3522">Other</text>
	<text transform="matrix(0.9436 0 0 1 51.4231 204.2224)" font-family="'ArialMT'" font-size="17.0283">HOUSE</text>
</g>
<g id="car">
	<rect id="attr_car_1" x="121.24" y="228.898" fill="#5D5D5D" width="10.954" height="11.999"/>
	<rect id="attr_car_2" x="214.103" y="228.898" fill="#5D5D5D" width="10.955" height="11.999"/>
	
		<line fill="none" stroke="#000000" stroke-width="0.5398" stroke-miterlimit="10" x1="75.521" y1="244.256" x2="503.915" y2="244.256"/>
	<text transform="matrix(0.9436 0 0 1 137.344 239.5251)" fill="#000DFF" font-family="'ArialMT'" font-size="11.3522">Own</text>
	<text transform="matrix(0.9436 0 0 1 229.8127 240.4705)" fill="#000DFF" font-family="'ArialMT'" font-size="11.3522">No</text>
	<text transform="matrix(0.9436 0 0 1 75.5208 234.1399)" font-family="'ArialMT'" font-size="17.0283">CAR</text>
</g>
</svg>
