<?xml version="1.0" encoding="utf-8"?>
<!-- Generator: Adobe Illustrator 16.0.0, SVG Export Plug-In . SVG Version: 6.00 Build 0)  -->
<!DOCTYPE svg PUBLIC "-//W3C//DTD SVG 1.1//EN" "http://www.w3.org/Graphics/SVG/1.1/DTD/svg11.dtd">
<svg version="1.1" id="图层_1" xmlns="http://www.w3.org/2000/svg" xmlns:xlink="http://www.w3.org/1999/xlink" x="0px" y="0px"
	 width="610px" height="981px" viewBox="0 0 610 981" enable-background="new 0 0 610 981" xml:space="preserve">
<g id="title">
	<text transform="matrix(0.9949 0 0 1 136.2908 51.03)" font-family="'ArialMT'" font-size="32.4705">City Folding VA System</text>
	
		<text transform="matrix(0.9949 0 0 1 136.2908 51.03)" fill="none" stroke="#0000FF" stroke-miterlimit="10" font-family="'ArialMT'" font-size="32.4705">City Folding VA System</text>
</g>
<g id="job">
	<polyline id="attr_job_1" fill="#5D5D5D" points="163.719,321.999 163.719,326.048 151.448,326.048 151.448,313.368 
		163.719,313.368 163.719,321.999 	"/>
	<polyline id="attr_job_2" fill="#5D5D5D" points="268.334,321.999 268.334,326.048 256.063,326.048 256.063,313.368 
		268.334,313.368 268.334,321.999 	"/>
	<polyline id="attr_job_6" fill="#5D5D5D" points="357.286,320.999 357.286,325.048 345.018,325.048 345.018,312.368 
		357.286,312.368 357.286,320.999 	"/>
	<polyline id="attr_job_4" fill="#5D5D5D" points="455.656,321.999 455.656,326.048 443.384,326.048 443.384,313.368 
		455.656,313.368 455.656,321.999 	"/>
	<rect id="attr_job_8" x="151.448" y="339.613" fill="#5D5D5D" width="12.271" height="12.68"/>
	<rect id="attr_job_7" x="256.199" y="340.613" fill="#5D5D5D" width="12.271" height="12.68"/>
	<polyline id="attr_job_5" fill="#5D5D5D" points="533.68,321.999 533.68,326.048 521.406,326.048 521.406,313.368 533.68,313.368 
		533.68,321.999 	"/>
	<rect id="attr_job_3" x="345.018" y="339.613" fill="#5D5D5D" width="12.271" height="12.68"/>
	<rect id="attr_job_9" x="521.407" y="339.613" fill="#5D5D5D" width="12.271" height="12.68"/>
	<text transform="matrix(1 0 0 1 167.3367 325.613)" fill="#000DFF" font-family="'ArialMT'" font-size="12">Management</text>
	<text transform="matrix(1 0 0 1 272.5266 324.613)" fill="#000DFF" font-family="'ArialMT'" font-size="12">Technician</text>
	<text transform="matrix(1 0 0 1 361.3362 351.2927)" fill="#000DFF" font-family="'ArialMT'" font-size="12">Government official</text>
	<text transform="matrix(1 0 0 1 460.2981 324.613)" fill="#000DFF" font-family="'ArialMT'" font-size="12">Servant</text>
	
		<line fill="none" stroke="#000000" stroke-width="0.5398" stroke-miterlimit="10" x1="101.756" y1="356.613" x2="580.72" y2="356.613"/>
	<text transform="matrix(1 0 0 1 538.802 325.5251)" fill="#000DFF" font-family="'ArialMT'" font-size="12">Worker</text>
	<text transform="matrix(1 0 0 1 361.3362 324.613)" fill="#000DFF" font-family="'ArialMT'" font-size="12">Businessman</text>
	<text transform="matrix(1 0 0 1 166.3958 351.2927)" fill="#000DFF" font-family="'ArialMT'" font-size="12">Retirement</text>
	<text transform="matrix(1 0 0 1 539.1663 350.2556)" fill="#000DFF" font-family="'ArialMT'" font-size="12">Others</text>
	<text transform="matrix(1 0 0 1 274.8582 351.2556)" fill="#000DFF" font-family="'ArialMT'" font-size="12">Student</text>
	<text transform="matrix(1 0 0 1 101.7561 322.5251)" font-family="'ArialMT'" font-size="18">JOB</text>
</g>
<g id="edu">
	<polyline id="attr_edu_1" fill="#5D5D5D" points="163.719,292.999 163.719,297.048 151.448,297.048 151.448,284.368 
		163.719,284.368 163.719,292.999 	"/>
	<rect id="attr_edu_2" x="256.198" y="284.368" fill="#5D5D5D" width="12.271" height="12.68"/>
	<rect id="attr_edu_3" x="345.828" y="283.368" fill="#5D5D5D" width="12.271" height="12.68"/>
	<rect id="attr_edu_4" x="443.384" y="283.368" fill="#5D5D5D" width="12.271" height="12.68"/>
	
		<line fill="none" stroke="#000000" stroke-width="0.5398" stroke-miterlimit="10" x1="32.824" y1="300.613" x2="580.72" y2="300.613"/>
	<text transform="matrix(1 0 0 1 460.2981 294.8083)" fill="#000DFF" font-family="'ArialMT'" font-size="12">Graduate</text>
	<text transform="matrix(1 0 0 1 361.7493 295.613)" fill="#000DFF" font-family="'ArialMT'" font-size="12">Undergradate</text>
	<text transform="matrix(1 0 0 1 168.5706 295.8083)" fill="#000DFF" font-family="'ArialMT'" font-size="12">Primary/middle</text>
	<text transform="matrix(1 0 0 1 273.5393 295.8083)" fill="#000DFF" font-family="'ArialMT'" font-size="12">High school</text>
	<text transform="matrix(1 0 0 1 32.8245 293.5251)" font-family="'ArialMT'" font-size="18">EDUCATION</text>
</g>
<g id="gender">
	<rect id="attr_gender_1" x="152.035" y="93.38" fill="#5D5D5D" width="12.271" height="12.683"/>
	<rect id="attr_gender_2" x="255.135" y="94.38" fill="#5D5D5D" width="12.271" height="12.683"/>
	<text transform="matrix(1 0 0 1 170.7659 104.7205)" fill="#000DFF" font-family="'ArialMT'" font-size="12">Male</text>
	
		<line fill="none" stroke="#000000" stroke-width="0.5398" stroke-miterlimit="10" x1="63.824" y1="109.613" x2="582.534" y2="109.613"/>
	<text transform="matrix(1 0 0 1 273.0432 104.7205)" fill="#000DFF" font-family="'ArialMT'" font-size="12">Female</text>
	<text transform="matrix(1 0 0 1 63.8245 98.613)" font-family="'ArialMT'" font-size="18">GENDER</text>
</g>
<g id="age">
	<rect id="attr_age_1" x="152.035" y="124.32" fill="#5D5D5D" width="12.271" height="12.68"/>
	<rect id="attr_age_2" x="255.064" y="124.32" fill="#5D5D5D" width="12.271" height="12.68"/>
	<rect id="attr_age_3" x="345.019" y="123.66" fill="#5D5D5D" width="12.271" height="12.68"/>
	<rect id="attr_age_4" x="443.384" y="124.32" fill="#5D5D5D" width="12.271" height="12.68"/>
	
		<line fill="none" stroke="#000000" stroke-width="0.5398" stroke-miterlimit="10" x1="100.819" y1="140.613" x2="581.72" y2="140.613"/>
	<text transform="matrix(1 0 0 1 171.0208 135.613)" fill="#000DFF" font-family="'ArialMT'" font-size="12">0-18</text>
	<text transform="matrix(1 0 0 1 271.8582 135.613)" fill="#000DFF" font-family="'ArialMT'" font-size="12">19-40</text>
	<text transform="matrix(1 0 0 1 365.0442 135.613)" fill="#000DFF" font-family="'ArialMT'" font-size="12">41-60</text>
	<text transform="matrix(1 0 0 1 461.1663 136.613)" fill="#000DFF" font-family="'ArialMT'" font-size="12">60--</text>
	<text transform="matrix(1 0 0 1 101.8245 130.613)" font-family="'ArialMT'" font-size="18">AGE</text>
</g>
<g id="resident">
	<rect id="attr_resident_1" x="151.786" y="155.677" fill="#5D5D5D" width="12.271" height="12.68"/>
	<rect id="attr_resident_2" x="255.063" y="155.677" fill="#5D5D5D" width="12.271" height="12.68"/>
	<rect id="attr_resident_3" x="345.828" y="156.677" fill="#5D5D5D" width="12.271" height="12.68"/>
	
		<line fill="none" stroke="#000000" stroke-width="0.5398" stroke-miterlimit="10" x1="48.824" y1="173.613" x2="581.72" y2="173.613"/>
	<text transform="matrix(1 0 0 1 171.3372 167.9685)" fill="#000DFF" font-family="'ArialMT'" font-size="12">Local</text>
	<text transform="matrix(1 0 0 1 271.8586 167.9685)" fill="#000DFF" font-family="'ArialMT'" font-size="12">Stranger</text>
	<text transform="matrix(1 0 0 1 364.0452 167.9685)" fill="#000DFF" font-family="'ArialMT'" font-size="12">Temporary</text>
	<text transform="matrix(1 0 0 1 49.8245 162.2957)" font-family="'ArialMT'" font-size="18">RESIDENT</text>
</g>
<g id="income">
	<rect id="attr_income_1" x="151.886" y="187.32" fill="#5D5D5D" width="12.271" height="12.68"/>
	<rect id="attr_income_2" x="255.063" y="188.32" fill="#5D5D5D" width="12.271" height="12.68"/>
	<rect id="attr_income_3" x="346.02" y="189.32" fill="#5D5D5D" width="12.27" height="12.68"/>
	<rect id="attr_income_4" x="443.385" y="189.32" fill="#5D5D5D" width="12.27" height="12.68"/>
	<rect id="attr_income_5" x="521.407" y="189.32" fill="#5D5D5D" width="12.271" height="12.68"/>
	<line fill="none" stroke="#000000" stroke-width="0.5398" stroke-miterlimit="10" x1="67.112" y1="205" x2="582.534" y2="205"/>
	<text transform="matrix(1 0 0 1 169.054 199.9998)" fill="#000DFF" font-family="'ArialMT'" font-size="12">0-100k</text>
	<text transform="matrix(1 0 0 1 268.8586 199.9998)" fill="#000DFF" font-family="'ArialMT'" font-size="12">100-200k</text>
	<text transform="matrix(1 0 0 1 363.6028 198.9998)" fill="#000DFF" font-family="'ArialMT'" font-size="12">200-300k</text>
	<text transform="matrix(1 0 0 1 460.2981 199.9998)" fill="#000DFF" font-family="'ArialMT'" font-size="12">300-500k</text>
	<text transform="matrix(1 0 0 1 538.802 199.9998)" fill="#000DFF" font-family="'ArialMT'" font-size="12">500k--</text>
	<text transform="matrix(1 0 0 1 67.1121 195.2957)" font-family="'ArialMT'" font-size="18">INCOME</text>
</g>
<g id="house">
	<rect id="attr_house_1" x="152.035" y="221.38" fill="#5D5D5D" width="12.271" height="12.683"/>
	<rect id="attr_house_2" x="256.064" y="222.38" fill="#5D5D5D" width="12.271" height="12.683"/>
	<rect id="attr_house_3" x="345.019" y="222.38" fill="#5D5D5D" width="12.271" height="12.683"/>
	
		<line fill="none" stroke="#000000" stroke-width="0.5398" stroke-miterlimit="10" x1="73.824" y1="238.613" x2="580.72" y2="238.613"/>
	<text transform="matrix(1 0 0 1 169.0759 233.613)" fill="#000DFF" font-family="'ArialMT'" font-size="12">Own</text>
	<text transform="matrix(1 0 0 1 272.6624 233.613)" fill="#000DFF" font-family="'ArialMT'" font-size="12">Rent</text>
	<text transform="matrix(1 0 0 1 366.5178 233.613)" fill="#000DFF" font-family="'ArialMT'" font-size="12">Other</text>
	<text transform="matrix(1 0 0 1 73.8245 228.2957)" font-family="'ArialMT'" font-size="18">HOUSE</text>
</g>
<g id="car">
	<rect id="attr_car_1" x="152.035" y="254.38" fill="#5D5D5D" width="12.271" height="12.683"/>
	<rect id="attr_car_2" x="256.064" y="254.38" fill="#5D5D5D" width="12.271" height="12.683"/>
	
		<line fill="none" stroke="#000000" stroke-width="0.5398" stroke-miterlimit="10" x1="100.819" y1="270.613" x2="580.72" y2="270.613"/>
	<text transform="matrix(1 0 0 1 170.0759 265.613)" fill="#000DFF" font-family="'ArialMT'" font-size="12">Own</text>
	<text transform="matrix(1 0 0 1 273.6624 266.613)" fill="#000DFF" font-family="'ArialMT'" font-size="12">No</text>
	<text transform="matrix(1 0 0 1 100.8186 259.9207)" font-family="'ArialMT'" font-size="18">CAR</text>
</g>
</svg>
