<?xml version="1.0" encoding="utf-8"?>
<!-- Generator: Adobe Illustrator 16.0.0, SVG Export Plug-In . SVG Version: 6.00 Build 0)  -->
<!DOCTYPE svg PUBLIC "-//W3C//DTD SVG 1.1//EN" "http://www.w3.org/Graphics/SVG/1.1/DTD/svg11.dtd">
<svg version="1.1" id="图层_1" xmlns="http://www.w3.org/2000/svg" xmlns:xlink="http://www.w3.org/1999/xlink" x="0px" y="0px"
	 width="610px" height="981px" viewBox="0 0 610 981" enable-background="new 0 0 610 981" xml:space="preserve">
<g id="background">
	<g>
		<rect x="0" y="1" fill="#04101C" width="610" height="986.816"/>
		<text transform="matrix(0.9949 0 0 1 161.2625 45.8943)" fill="#FF37D7" font-family="'KannadaMN'" font-size="32.4705">City Folding VA System</text>
		
			<rect x="69.989" y="262.785" fill="none" stroke="#FF37D7" stroke-width="0.5398" stroke-miterlimit="10" width="200.485" height="44.375"/>
		
			<rect x="354.613" y="262.785" fill="none" stroke="#FF37D7" stroke-width="0.5398" stroke-miterlimit="10" width="200.486" height="44.375"/>
		
			<rect x="69.989" y="327.992" fill="none" stroke="#FF37D7" stroke-width="0.5398" stroke-miterlimit="10" width="200.485" height="44.375"/>
		
			<rect x="354.613" y="327.992" fill="none" stroke="#FF37D7" stroke-width="0.5398" stroke-miterlimit="10" width="200.486" height="44.375"/>
		
			<rect x="69.823" y="394.441" fill="none" stroke="#FF37D7" stroke-width="0.5398" stroke-miterlimit="10" width="200.486" height="44.376"/>
		
			<rect x="354.447" y="394.441" fill="none" stroke="#FF37D7" stroke-width="0.5398" stroke-miterlimit="10" width="200.486" height="44.376"/>
		
			<rect x="69.823" y="461.951" fill="none" stroke="#FF37D7" stroke-width="0.5398" stroke-miterlimit="10" width="200.486" height="44.377"/>
		
			<rect x="354.447" y="461.951" fill="none" stroke="#FF37D7" stroke-width="0.5398" stroke-miterlimit="10" width="200.486" height="44.377"/>
	</g>
	
		<line opacity="0.95" fill="none" stroke="#FF8AEE" stroke-width="1.6153" stroke-miterlimit="10" enable-background="new    " x1="94.756" y1="155.57" x2="213.025" y2="155.57"/>
	
		<line opacity="0.95" fill="none" stroke="#FF8AEE" stroke-width="1.6153" stroke-miterlimit="10" enable-background="new    " x1="395.962" y1="155.57" x2="514.235" y2="155.57"/>
	<text transform="matrix(1 0 0 1 238.5818 270.4773)" fill="#FF3B9C" font-family="'ArialMT'" font-size="21.5373">Age</text>
	<text transform="matrix(1 0 0 1 343.844 270.4773)" fill="#FF3B9C" font-family="'ArialMT'" font-size="21.5373">Gender</text>
	<text transform="matrix(1 0 0 1 191.8992 333.6394)" fill="#FF3B9C" font-family="'ArialMT'" font-size="21.5373">Resident</text>
	<text transform="matrix(1 0 0 1 343.844 333.6394)" fill="#FF3B9C" font-family="'ArialMT'" font-size="21.5373">Education</text>
	<text transform="matrix(1 0 0 1 242.178 397.3855)" fill="#FF3B9C" font-family="'ArialMT'" font-size="21.5373">Job</text>
	<text transform="matrix(1 0 0 1 343.844 397.3826)" fill="#FF3B9C" font-family="'ArialMT'" font-size="21.5373">Income</text>
	<text transform="matrix(1 0 0 1 172.4788 465.9216)" fill="#FF3B9C" font-family="'ArialMT'" font-size="21.5373">Car Owner</text>
	<text transform="matrix(1 0 0 1 343.844 465.9187)" fill="#FF3B9C" font-family="'ArialMT'" font-size="21.5373">House Owner</text>
	<circle fill="#F2EBEB" stroke="#FF37D7" stroke-width="2.1537" stroke-miterlimit="10" cx="307.977" cy="151.855" r="78.611"/>
	<path fill="none" stroke="#00B7FF" stroke-width="2.1537" stroke-miterlimit="10" d="M496.428,948.506
		c0,3.373-2.732,6.104-6.105,6.104H112.705c-3.37,0-6.104-2.73-6.104-6.104V570.886c0-3.375,2.732-6.104,6.104-6.104H490.32
		c3.373,0,6.105,2.729,6.105,6.104L496.428,948.506L496.428,948.506z"/>
</g>
<g id="suser_base">
	<path fill="#DCC5A1" d="M308.089,158.257v52.229h-28.493c-0.461-0.218-0.7-0.303-0.7-0.303c0-6.546,0.938-11.665,2.42-15.688
		c3.354-9.262,9.392-12.646,12.701-13.817c1.406-0.498,2.322-0.615,2.322-0.615h0.141c0.119-0.021,0.261-0.041,0.379-0.085
		c0.958-0.25,1.729-1.292,2.317-2.862c0.3-0.756,0.543-1.648,0.765-2.648c0.114-0.53,0.215-1.074,0.3-1.631
		c0.158-0.975,0.303-1.975,0.396-3.047c0.062-0.614,0.124-1.257,0.179-1.913c0.266-3.226,0.341-6.71,0.341-9.996
		C301.156,157.878,304.99,158.257,308.089,158.257"/>
	<path fill="#EDD9B4" d="M337.38,210.183c0,0-0.261,0.085-0.68,0.3h-28.611v-52.229h0.062c3.099,0,6.953-0.381,6.953-0.381
		c0,3.271,0.079,6.711,0.34,9.898c0.062,0.637,0.118,1.271,0.184,1.91c0.119,1.079,0.234,2.138,0.396,3.085v0.041
		c0.062,0.421,0.146,0.836,0.225,1.212c0.278,1.38,0.617,2.565,1.021,3.524h0.021c0.457,1.111,1.036,1.896,1.718,2.271
		c0.103,0.041,0.201,0.123,0.299,0.139c0.197,0.062,0.42,0.104,0.641,0.104c0,0,0.521,0.06,1.396,0.297
		c3.16,0.937,10.852,4.325,14.308,16.168c0.891,2.97,1.479,6.473,1.66,10.61C337.363,208.119,337.38,209.131,337.38,210.183"/>
	<g opacity="0.7">
		<g>
			<g>
				<g>
					<g>
						<g>
							<g>
								<defs>
									<rect id="SVGID_1_" x="300.227" y="167.791" width="15.78" height="9.3"/>
								</defs>
								<clipPath id="SVGID_2_">
									<use xlink:href="#SVGID_1_"  overflow="visible"/>
								</clipPath>
								<path clip-path="url(#SVGID_2_)" fill="#BC9F82" d="M316.007,172.794v0.021c-0.699,1.118-3.114,4.277-7.896,4.277h-0.034
									c-4.535-0.021-7.178-3.309-7.854-4.261c0.166-0.959,0.296-1.975,0.402-3.022c0.058-0.639,0.12-1.277,0.179-1.938
									c2.22,0.561,4.615,0.896,7.192,0.938h0.079c2.64-0.039,5.071-0.396,7.354-1.019c0.062,0.64,0.124,1.273,0.182,1.896
									C315.731,170.779,315.85,171.815,316.007,172.794"/>
							</g>
						</g>
					</g>
				</g>
			</g>
		</g>
	</g>
	<path fill="#CCAD8B" d="M308.055,102.129c-29.737-0.061-29.906,23.755-28.585,39.282c-2.046-3.64-8.072-2.286-7.578,3.544
		c0.479,5.591,8.997,8.12,8.883,7.506c2.436,12.648,16.446,19.681,27.28,20.682c0.075,0.003,0.153,0,0.229,0.005v-71.014
		C308.204,102.135,308.13,102.129,308.055,102.129"/>
	<path fill="#BC9F82" d="M273.384,142.49c1.494-2.256,3.795-1.284,4.357-0.784c0.604,0.538,1.076,1.257,0.701,2.583
		c-0.206,0.757-1.039,0.812-0.837,1.956c0.225,1.282,0.854,1.364,1.208,1.655c0.354,0.289,0.792,0.516,1.021,1.054
		c0.218,0.539,0.255,1.117,0.133,1.608c-0.229,0.927-1.652,0.188-2.604-0.215c-0.618-0.273-2.614-1.865-3.116-2.406
		C272.976,146.592,272.391,143.994,273.384,142.49"/>
	<path fill="#D9BF9F" d="M308.204,102.129c29.73-0.061,29.902,23.755,28.586,39.282c2.039-3.64,8.066-2.286,7.576,3.544
		c-0.479,5.591-8.996,8.12-8.886,7.506c-2.432,12.648-16.438,19.681-27.276,20.682c-0.076,0.003-0.157,0-0.229,0.005v-71.014
		C308.052,102.135,308.128,102.129,308.204,102.129"/>
	<path fill="#BC9F82" d="M343.081,142.49c-1.488-2.256-3.789-1.284-4.354-0.784c-0.604,0.538-1.075,1.257-0.715,2.583
		c0.216,0.757,1.049,0.812,0.847,1.956c-0.222,1.282-0.852,1.364-1.207,1.655c-0.354,0.289-0.797,0.516-1.021,1.054
		c-0.213,0.539-0.253,1.117-0.133,1.608c0.229,0.927,1.649,0.188,2.604-0.215c0.631-0.273,2.622-1.865,3.122-2.406
		C343.496,146.592,344.077,143.994,343.081,142.49"/>
	<path fill="#DCC5A1" d="M307.901,108.869c-9.938,0-17.195,2.729-21.604,8.116c-6.144,7.521-5.906,19.008-3.639,27.26
		c0.688,2.523,1.045,9.316,1.521,11.814c2.146,11.152,15.147,17.098,23.717,17.098c0.07,0,0.153-0.012,0.229-0.012v-64.271
		C308.049,108.875,307.977,108.869,307.901,108.869"/>
	<path fill="#EDD9B4" d="M329.449,116.994c-4.362-5.353-11.552-8.075-21.321-8.12v64.271c9.773-0.104,21.472-6.606,23.479-17.086
		c0.479-2.495,0.832-9.291,1.527-11.814C335.397,136.021,335.617,124.544,329.449,116.994"/>
</g>
<g id="gender">
	<text transform="matrix(1 0 0 1 371.844 294.4773)" fill="#80E880" font-family="'ArialMT'" font-size="15">F</text>
	<text transform="matrix(1 0 0 1 465.844 294.4773)" fill="#80E880" font-family="'ArialMT'" font-size="15">M</text>
	<rect id="attr_gender_f" x="386.586" y="283.535" fill="#80E880" width="34.73" height="9.99"/>
	<rect id="attr_gender_m" x="483.211" y="283.535" fill="#80E880" width="43.289" height="9.99"/>
</g>
<g id="dresslater_gender_f">
	<path fill="#1D1E17" d="M342.629,127.35c-2.899-8.66-9.564-16.121-12.249-19.185c-3.488-3.942-12.727-7.83-13.681-8.212
		c-0.965-0.388-4.646,1.082-8.238,0.25c-3.611-0.835-10.819,0.189-21.045,6.775c-4.764,3.082-7.901,8.783-9.943,14.503
		c-1.029,2.924-1.761,5.865-2.251,8.438c-0.627,3.25-0.894,5.961-0.894,7.44c0,0.957,0.249,2.273,0.638,3.761
		c0.127,0.479,0.267,0.979,0.419,1.487c0.446,1.471,0.985,3.053,1.572,4.642l1.543,2.714c-0.119,0.347-0.224,0.705-0.296,1.071
		c-0.068,0.355-0.109,0.724-0.137,1.085c-0.017,0.199-0.03,0.407-0.03,0.612c0,2.984,1.509,5.59,3.739,6.992
		c-0.981,1.291-1.561,2.843-1.561,4.516c0,4.431,4.032,8.021,9.001,8.021c0.468,0,0.927-0.038,1.376-0.104
		c-0.183,0.593-0.294,1.214-0.294,1.859c0,3.282,2.554,6.062,6.106,7.077c0.237,0.063,0.481,0.122,0.729,0.178
		c0.369-0.079,0.582-0.109,0.582-0.109h0.137c0.12-0.021,0.266-0.038,0.377-0.073c1.264-0.351,2.17-2.004,2.818-4.429
		c0.097-0.366,0.186-0.741,0.277-1.137c0.125-0.521,0.218-1.059,0.3-1.632c0.002-0.002,0.002-0.005,0.002-0.005
		c0-0.017,0-0.024,0.005-0.036c0.066-0.404,0.126-0.825,0.183-1.246c-4.756-1.525-9.479-4.062-13.153-7.566
		c-0.725-0.968-1.354-2.003-1.867-3.104c-0.188-4.453-0.283-12.481-0.246-17.231c0.013-1.955,0.049-3.357,0.109-3.721
		c0.472-2.632,5.729-7.429,9.515-10.614c1.044-0.885,1.986-1.651,2.688-2.211c1.862-1.506,3.539-3.458,4.952-5.438
		c2.129-2.936,3.701-5.942,4.645-7.526c0,0-1.833,5.631-2.283,6.71c-0.139,0.332-0.284,0.641-0.459,0.938
		c-1.391,2.769-3.397,4.611-3.716,4.906c0.521-0.313,4.502-2.698,6.79-4.663c0.172-0.157,0.348-0.294,0.508-0.448
		c0.037-0.035,0.074-0.072,0.111-0.109c0.053-0.052,0.104-0.1,0.152-0.15c0.051-0.051,0.106-0.099,0.154-0.151
		c1.95-1.979,3.629-4.655,3.881-5.045c-0.167,0.417-1.179,3.097,0.185,6.382c0.299,0.746,0.73,1.526,1.324,2.329
		c1.448,1.944,5.037,4.149,5.909,4.663c-0.593-0.473-2.509-2.178-2.73-5.311c-0.021-0.31-0.074-0.729-0.123-1.198
		c-0.16-1.267-0.388-2.887-0.418-3.251c0.116,0.315,0.626,1.703,1.406,3.375c0.786,1.704,1.898,3.667,3.159,4.974
		c1.204,1.271,2.407,2.719,3.454,4.001c1.296,1.562,2.359,2.919,2.982,3.513c0.768,0.73,1.26,3.305,1.562,6.683
		c0.581,6.459,0.462,15.859,0.232,20.979c-0.474,0.711-0.995,1.395-1.562,2.042c-3.423,2.837-7.535,4.923-11.677,6.254h-0.009
		c0.054,0.402,0.106,0.801,0.173,1.184c0,0,0-0.003,0.004-0.003c0.004,0.021,0.004,0.038,0.013,0.058v0.024
		c0.06,0.438,0.14,0.845,0.216,1.238c0.09,0.438,0.188,0.85,0.29,1.254c0.586,2.291,1.393,3.95,2.481,4.568
		c0.103,0.036,0.198,0.101,0.301,0.118c0.199,0.076,0.421,0.114,0.646,0.114c0,0,1.62,0.202,3.867,1.26
		c0.363-0.038,0.725-0.09,1.074-0.161c4.357-0.875,7.594-4.045,7.594-7.834c0-1.364-0.43-2.651-1.175-3.786
		c2.694-1.979,4.438-5.09,4.438-8.589c0-1.328-0.263-2.585-0.717-3.755c3.505-1.25,5.94-3.944,5.995-7.085
		c0.003-0.03,0.003-0.062,0.003-0.096c0-0.347-0.039-0.678-0.093-1.006c-0.168-1.003-0.567-1.946-1.176-2.791l0.041-0.071
		c0.688-1.618,1.31-3.337,1.789-5.133c0.123-0.476,0.237-0.954,0.345-1.438c0.317-1.479,0.531-3.004,0.591-4.56
		c0.017-0.298,0.017-0.587,0.017-0.888C344.02,132.565,343.5,129.902,342.629,127.35"/>
	<path fill="#841720" d="M329.066,184.106c-3.396-1.621-7.436-2.645-7.218-2.157c2.203,3.086,1.385,5.669,1.021,10.1
		c-0.011,0.138-0.022,0.261-0.039,0.391c-1.368-0.958-3.033-1.527-4.834-1.527c-3.919,0-7.203,2.666-8.151,6.272
		c-0.131-0.002-0.254-0.011-0.386-0.011c-0.065,0-0.127,0.006-0.192,0.006c-0.952-3.604-4.233-6.27-8.146-6.27
		c-1.875,0-3.605,0.619-5.014,1.655c-0.018-0.169-0.037-0.337-0.049-0.52c-0.369-4.431-1.188-7.014,1.015-10.1
		c0.22-0.485-3.814,0.536-7.218,2.157c-3.398,1.621-6.169,3.835-6.169,3.835s2.542,0.836,3.586,3.961
		c0.532,1.554,0.856,4.376,1.036,6.982c0.368,5.298,3.031,7.675,2.877,9.455h18.274h18.283c-0.16-1.78,2.506-4.157,2.874-9.455
		c0.183-2.606,0.504-5.431,1.033-6.982c1.044-3.125,3.592-3.961,3.592-3.961S332.471,185.727,329.066,184.106"/>
</g>
<g id="dresslater_gender_m">
	<path fill="#FDFDFD" d="M339.227,208.047c0,0-0.271,0.076-0.711,0.271h-59.708c-0.481-0.193-0.76-0.271-0.76-0.271
		c0-19.643,10.79-25.306,15.78-26.887c2.882,1.25,7.534,3.278,9.214,3.938c1.288,0.487,3.161,1.68,5.587,1.664
		c2.258-0.037,4.981-1.229,8.238-2.117c3.006-0.819,5.703-2.017,7.878-3.05C330.095,183.719,339.227,189.964,339.227,208.047"/>
	<path fill="#08B5F2" d="M332.566,208.316H284.72c0.146-2.033,0.286-5.717,0.225-10.688v-0.935
		c-0.021-0.338-0.021-0.703-0.061-1.088c-0.021-0.25-0.043-0.529-0.071-0.792c-0.176-1.998-0.56-4.365-1.021-6.828
		c1.404-1.801,2.907-3.179,4.394-4.224c0.122-0.115,0.274-0.21,0.396-0.285c1.939-1.337,3.817-2.125,5.224-2.574
		c0.264-0.093,0.522-0.167,0.757-0.226c1.08-0.285,1.747-0.358,1.747-0.358c0.566,0,1.065-0.202,1.502-0.544
		c0,0,0-0.021,0.021-0.021c0.149-0.128,0.299-0.28,0.444-0.445c0.062,0.032,0.168,0.179,0.268,0.468
		c0.566,1.292,6.209,13.146,10.092,16.472c3.883-3.323,9.528-15.179,10.087-16.472c0.112-0.289,0.216-0.436,0.277-0.468
		c0.142,0.165,0.294,0.317,0.438,0.445c0.021,0,0.021,0.021,0.021,0.021c0.435,0.342,0.939,0.544,1.506,0.544
		c0,0,0.629,0.056,1.651,0.323c0.228,0.073,0.479,0.146,0.756,0.242c1.396,0.43,3.291,1.2,5.281,2.554
		c0.131,0.096,0.275,0.188,0.394,0.297c1.51,1.054,3.031,2.433,4.434,4.251c-0.479,2.54-0.864,4.952-1.021,6.964
		c-0.043,0.275-0.065,0.542-0.089,0.802c-0.021,0.271-0.021,0.543-0.042,0.774v0.934
		C332.242,202.504,332.418,206.266,332.566,208.316"/>
	<path fill="#1D1E17" d="M336.69,109.431c-2.875-2.509-6.507-3.405-6.507-3.405s-8.042-3.769-14.17-6.453
		c-6.126-2.687-16.081-0.537-21.25,0.716c-5.168,1.254-11.319,8.135-13.24,11.896c-1.91,3.772-6.668,11.943-8.197,17.859
		c-1.533,5.913,3.612,11.65,6.821,12.874c2.089,0.802,2.227,5.396,2.227,5.396l2.277,0.939c0,0-1.399-3.205-1.197-6.448
		c0.139-2.155-0.238-8.645-0.238-8.645s9.828-1.824,17.062-3.658c-2.447,2.802-4.454,4.708-4.454,4.708
		c4.233-1.349,7.61-3.601,10.289-6.124c-3.646,4.896-7.823,8.865-7.823,8.865c5.76-1.837,9.946-5.346,12.914-8.936
		c-3.889,6.176-9.912,11.891-9.912,11.891c13.645-4.344,18.478-18.056,19.099-20.021c0.039-0.03,0.078-0.062,0.111-0.094
		c1.739,0.377,4.609,1.338,8.176,3.815c3.625,2.519,8.079,6.003,8.079,13.541c0,2.521-1.205,9.853-1.205,9.853l1.205-0.798
		c0,0,0-2.846,3.434-4.626c2.738-1.425,3.438-6.252,3.438-8.249C343.624,120.983,339.562,111.945,336.69,109.431"/>
</g>
<g id="button_checkmore">
	<g>
		<path fill="#F2EBEB" stroke="#FF37D7" stroke-width="2.1537" stroke-miterlimit="10" d="M322.082,73.244
			c-1.148,0-2.285,0.038-3.42,0.086c39.856,3.815,71.03,37.382,71.03,78.24c0,42.268-33.364,76.732-75.192,78.524
			c2.496,0.238,5.022,0.37,7.582,0.37c43.416,0,78.61-35.194,78.61-78.609C400.694,108.439,365.498,73.244,322.082,73.244z"/>
	</g>
</g>

<rect id='test' x="235.499" y="279.535" fill="#F2EBEB" stroke="#FF37D7" stroke-width="1.5746" stroke-miterlimit="10" width="15.502" height="15.465"/>

</svg>
