<?xml version="1.0" encoding="utf-8"?>
<!-- Generator: Adobe Illustrator 16.0.0, SVG Export Plug-In . SVG Version: 6.00 Build 0)  -->
<!DOCTYPE svg PUBLIC "-//W3C//DTD SVG 1.1//EN" "http://www.w3.org/Graphics/SVG/1.1/DTD/svg11.dtd">
<svg version="1.1" id="图层_1" xmlns="http://www.w3.org/2000/svg" xmlns:xlink="http://www.w3.org/1999/xlink" x="0px" y="0px"
	 width="610px" height="981px" viewBox="0 0 610 981" enable-background="new 0 0 610 981" xml:space="preserve">
<g id="background">
	<rect x="0" y="0" fill="#04101C" width="610" height="986.816"/>
	<text transform="matrix(0.9949 0 0 1 161.262 44.8943)" fill="#FF37D7" font-family="'ArialMT'" font-size="32.4705">City Folding VA System</text>
	
		<rect x="69.988" y="261.785" fill="none" stroke="#FF37D7" stroke-width="0.5398" stroke-miterlimit="10" width="200.485" height="44.375"/>
	
		<rect x="354.612" y="261.785" fill="none" stroke="#FF37D7" stroke-width="0.5398" stroke-miterlimit="10" width="200.486" height="44.375"/>
	
		<rect x="69.988" y="326.992" fill="none" stroke="#FF37D7" stroke-width="0.5398" stroke-miterlimit="10" width="200.485" height="44.375"/>
	
		<rect x="354.612" y="326.992" fill="none" stroke="#FF37D7" stroke-width="0.5398" stroke-miterlimit="10" width="200.486" height="44.375"/>
	
		<rect x="69.822" y="393.441" fill="none" stroke="#FF37D7" stroke-width="0.5398" stroke-miterlimit="10" width="200.487" height="44.376"/>
	
		<rect x="354.446" y="393.441" fill="none" stroke="#FF37D7" stroke-width="0.5398" stroke-miterlimit="10" width="200.486" height="44.376"/>
	
		<rect x="69.822" y="460.951" fill="none" stroke="#FF37D7" stroke-width="0.5398" stroke-miterlimit="10" width="200.487" height="44.377"/>
	
		<rect x="354.446" y="460.951" fill="none" stroke="#FF37D7" stroke-width="0.5398" stroke-miterlimit="10" width="200.486" height="44.377"/>
	
		<line opacity="0.95" fill="none" stroke="#FF8AEE" stroke-width="1.6153" stroke-miterlimit="10" enable-background="new    " x1="94.756" y1="151.57" x2="213.024" y2="151.57"/>
	
		<line opacity="0.95" fill="none" stroke="#FF8AEE" stroke-width="1.6153" stroke-miterlimit="10" enable-background="new    " x1="395.961" y1="154.57" x2="514.235" y2="154.57"/>
	<text transform="matrix(1 0 0 1 238.5813 267.4773)" fill="#FF3B9C" font-family="'ArialMT'" font-size="21.5373">Age</text>
	<text transform="matrix(1 0 0 1 343.844 396.3855)" fill="#FF3B9C" font-family="'ArialMT'" font-size="21.5373">Resident</text>
	<text transform="matrix(1 0 0 1 172.4783 464.9216)" fill="#FF3B9C" font-family="'ArialMT'" font-size="21.5373">Car Owner</text>
	<text transform="matrix(1 0 0 1 343.844 267.4773)" fill="#FF3B9C" font-family="'ArialMT'" font-size="21.5373">Gender</text>
	<text transform="matrix(1 0 0 1 242.1775 398.3855)" fill="#FF3B9C" font-family="'ArialMT'" font-size="21.5373">Job</text>
	<text transform="matrix(1 0 0 1 204.844 332.9919)" fill="#FF3B9C" font-family="'ArialMT'" font-size="21.5373">Income</text>
	<text transform="matrix(1 0 0 1 343.844 464.9187)" fill="#FF3B9C" font-family="'ArialMT'" font-size="21.5373">House </text>
	<text transform="matrix(1 0 0 1 343.844 332.6394)" fill="#FF3B9C" font-family="'ArialMT'" font-size="21.5373">Education</text>
	<path fill="none" stroke="#00B7FF" stroke-width="2.1537" stroke-miterlimit="10" d="M496.428,947.51
		c0,3.373-2.732,6.104-6.105,6.104H112.705c-3.37,0-6.104-2.729-6.104-6.104V569.89c0-3.375,2.732-6.104,6.104-6.104h377.609
		c3.373,0,6.105,2.729,6.105,6.104L496.428,947.51L496.428,947.51z"/>
	<circle fill="#F2EBEB" stroke="#FF37D7" stroke-width="2.1537" stroke-miterlimit="10" cx="307.977" cy="150.855" r="78.611"/>
	
		<ellipse id="bg_job" fill="#F2EBEB" stroke="#FF37D7" stroke-width="2.1537" stroke-miterlimit="10" cx="179.096" cy="108.874" rx="38.559" ry="37.186"/>
	
		<ellipse id="bg_car" fill="#F2EBEB" stroke="#FF37D7" stroke-width="2.1537" stroke-miterlimit="10" cx="178.329" cy="194.628" rx="38.559" ry="37.186"/>
	
		<ellipse id="bg_resident" fill="#F2EBEB" stroke="#FF37D7" stroke-width="2.1537" stroke-miterlimit="10" cx="442.135" cy="110.869" rx="38.56" ry="37.186"/>
	
		<ellipse id="bg_house" fill="#F2EBEB" stroke="#FF37D7" stroke-width="2.1537" stroke-miterlimit="10" cx="442.135" cy="197.484" rx="38.56" ry="37.186"/>
</g>
<g id="suser_base">
	<path fill="#DCC5A1" d="M308.089,158.257v52.229h-28.493c-0.461-0.218-0.7-0.303-0.7-0.303c0-6.546,0.938-11.665,2.42-15.688
		c3.354-9.262,9.396-12.646,12.701-13.813c1.406-0.498,2.322-0.615,2.322-0.615h0.141c0.119-0.021,0.261-0.041,0.379-0.085
		c0.958-0.25,1.729-1.292,2.317-2.862c0.3-0.756,0.543-1.646,0.765-2.646c0.114-0.53,0.215-1.074,0.3-1.637
		c0.158-0.975,0.303-1.975,0.396-3.047c0.062-0.608,0.124-1.257,0.179-1.913c0.266-3.226,0.341-6.71,0.341-9.996
		C301.156,157.878,304.99,158.257,308.089,158.257"/>
	<path fill="#EDD9B4" d="M337.38,210.183c0,0-0.267,0.085-0.686,0.3h-28.605v-52.229h0.062c3.104,0,6.953-0.381,6.953-0.381
		c0,3.271,0.079,6.711,0.34,9.898c0.063,0.637,0.118,1.271,0.188,1.91c0.113,1.079,0.229,2.138,0.396,3.085v0.041
		c0.063,0.421,0.146,0.836,0.229,1.212c0.273,1.38,0.612,2.563,1.021,3.521h0.021c0.456,1.111,1.031,1.896,1.719,2.271
		c0.103,0.041,0.201,0.123,0.299,0.139c0.197,0.063,0.42,0.104,0.641,0.104c0,0,0.521,0.06,1.396,0.297
		c3.16,0.937,10.852,4.325,14.308,16.168c0.896,2.97,1.479,6.473,1.66,10.604C337.363,208.119,337.38,209.131,337.38,210.183"/>
	<g opacity="0.7">
		<g>
			<g>
				<g>
					<g>
						<g>
							<g>
								<g>
									<g>
										<g>
											<g>
												<g>
													<g>
														<defs>
															<rect id="SVGID_1_" x="300.227" y="167.791" width="15.78" height="9.3"/>
														</defs>
														<clipPath id="SVGID_2_">
															<use xlink:href="#SVGID_1_"  overflow="visible"/>
														</clipPath>
														<path clip-path="url(#SVGID_2_)" fill="#BC9F82" d="M316.007,172.794v0.021c-0.699,1.118-3.114,4.271-7.896,4.271
															h-0.034c-4.535-0.021-7.178-3.309-7.854-4.261c0.166-0.959,0.296-1.975,0.402-3.021
															c0.058-0.645,0.114-1.277,0.179-1.938c2.22,0.563,4.615,0.896,7.188,0.938h0.079c2.646-0.039,5.071-0.396,7.354-1.021
															c0.062,0.646,0.124,1.273,0.182,1.896C315.731,170.779,315.85,171.815,316.007,172.794"/>
													</g>
												</g>
											</g>
										</g>
									</g>
								</g>
							</g>
						</g>
					</g>
				</g>
			</g>
		</g>
	</g>
	<path fill="#CCAD8B" d="M308.055,102.129c-29.737-0.061-29.906,23.755-28.585,39.282c-2.046-3.64-8.072-2.286-7.578,3.544
		c0.479,5.591,8.997,8.12,8.883,7.506c2.438,12.648,16.446,19.687,27.28,20.688c0.075,0.003,0.147,0,0.229,0.005v-71.014
		C308.198,102.135,308.13,102.129,308.055,102.129"/>
	<path fill="#BC9F82" d="M273.384,142.49c1.494-2.256,3.795-1.284,4.357-0.784c0.604,0.538,1.07,1.257,0.695,2.583
		c-0.206,0.757-1.039,0.813-0.837,1.956c0.229,1.282,0.854,1.364,1.208,1.655c0.354,0.289,0.792,0.516,1.021,1.054
		c0.218,0.539,0.255,1.117,0.133,1.608c-0.229,0.927-1.652,0.188-2.604-0.215c-0.612-0.273-2.608-1.865-3.11-2.406
		C272.976,146.592,272.391,143.994,273.384,142.49"/>
	<path fill="#D9BF9F" d="M308.198,102.129c29.73-0.061,29.902,23.755,28.586,39.282c2.039-3.64,8.066-2.286,7.576,3.544
		c-0.479,5.591-8.996,8.12-8.886,7.506c-2.432,12.648-16.438,19.687-27.276,20.688c-0.07,0.003-0.151,0-0.229,0.005v-71.014
		C308.052,102.135,308.128,102.129,308.198,102.129"/>
	<path fill="#BC9F82" d="M343.075,142.49c-1.482-2.256-3.789-1.284-4.354-0.784c-0.604,0.538-1.075,1.257-0.715,2.583
		c0.216,0.757,1.049,0.813,0.847,1.956c-0.222,1.282-0.852,1.364-1.207,1.655c-0.354,0.289-0.797,0.516-1.021,1.054
		c-0.217,0.539-0.254,1.117-0.138,1.608c0.229,0.927,1.649,0.188,2.604-0.215c0.631-0.273,2.622-1.865,3.122-2.406
		C343.49,146.592,344.073,143.994,343.075,142.49"/>
	<path fill="#DCC5A1" d="M307.901,108.869c-9.938,0-17.189,2.729-21.604,8.116c-6.146,7.521-5.906,19.008-3.639,27.26
		c0.688,2.523,1.045,9.316,1.521,11.814c2.146,11.146,15.146,17.098,23.717,17.098c0.07,0,0.153-0.012,0.229-0.012v-64.271
		C308.049,108.875,307.977,108.869,307.901,108.869"/>
	<path fill="#EDD9B4" d="M329.448,116.994c-4.356-5.353-11.552-8.075-21.315-8.12v64.271c9.771-0.104,21.472-6.606,23.479-17.086
		c0.479-2.495,0.832-9.291,1.527-11.814C335.397,136.021,335.615,124.544,329.448,116.994"/>
	<path fill="#0071BC" d="M334.013,211.383H281.95c0.154-2.16,0.311-6.086,0.239-11.378v-0.99c-0.021-0.36-0.021-0.749-0.063-1.158
		c-0.023-0.271-0.047-0.564-0.078-0.848c-0.191-2.127-0.609-4.646-1.11-7.269c1.527-1.917,3.164-3.384,4.781-4.497
		c0.133-0.123,0.299-0.225,0.432-0.303c2.109-1.423,4.153-2.263,5.688-2.741c0.287-0.099,0.566-0.177,0.823-0.241
		c1.175-0.302,1.896-0.38,1.896-0.38c0.616,0,1.159-0.215,1.634-0.579c0,0,0-0.021,0.022-0.021c0.163-0.141,0.326-0.297,0.483-0.478
		c0.063,0.033,0.183,0.19,0.292,0.498c0.61,1.375,6.751,13.994,10.979,17.536c4.225-3.538,10.366-16.159,10.976-17.536
		c0.122-0.308,0.234-0.465,0.307-0.498c0.149,0.181,0.315,0.337,0.476,0.478c0.023,0,0.023,0.021,0.023,0.021
		c0.474,0.364,1.021,0.579,1.639,0.579c0,0,0.685,0.063,1.796,0.344c0.249,0.077,0.522,0.154,0.824,0.262
		c1.519,0.458,3.58,1.272,5.745,2.719c0.143,0.102,0.3,0.2,0.43,0.313c1.643,1.122,3.297,2.595,4.824,4.526
		c-0.521,2.704-0.94,5.272-1.11,7.414c-0.047,0.293-0.071,0.577-0.098,0.854c-0.022,0.288-0.022,0.577-0.045,0.823v0.994
		C333.656,205.195,333.853,209.201,334.013,211.383"/>
</g>
<g id="gender">
	<text transform="matrix(1 0 0 1 375.0237 294.0017)" fill="#80E880" font-family="'ArialMT'" font-size="15">F</text>
	<text transform="matrix(1 0 0 1 465.0237 294.0017)" fill="#80E880" font-family="'ArialMT'" font-size="15">M</text>
	<rect id="attr_gender_2" x="393.141" y="283.059" fill="#80E880" width="34.729" height="9.986"/>
	<polyline id="attr_gender_1" fill="#80E880" points="501.127,293.049 486.391,293.049 486.391,283.059 524.013,283.059 
		524.013,293.049 501.127,293.049 	"/>
</g>
<g id="button_checkmore">
	<g>
		<path fill="#F2EBEB" stroke="#FF37D7" stroke-width="2.1537" stroke-miterlimit="10" d="M322.076,73.244
			c-1.146,0-2.279,0.038-3.42,0.086c39.856,3.815,71.03,37.382,71.03,78.24c0,42.268-33.364,76.732-75.191,78.524
			c2.495,0.232,5.021,0.364,7.581,0.364c43.416,0,78.61-35.188,78.61-78.604C400.694,108.439,365.492,73.244,322.076,73.244z"/>
	</g>
</g>
<g id="age">
	<rect x="79.423" y="286.816" fill="none" width="37.333" height="13.417"/>
	<text transform="matrix(1 0 0 1 79.4207 297.3767)" fill="#80E880" font-family="'ArialMT'" font-size="12">0-18</text>
	<rect x="116.756" y="286.816" fill="none" width="37.333" height="13.417"/>
	<text transform="matrix(1 0 0 1 116.7542 297.3767)" fill="#80E880" font-family="'ArialMT'" font-size="12">19-40</text>
	<rect x="160.262" y="286.816" fill="none" width="37.333" height="13.417"/>
	<text transform="matrix(1 0 0 1 160.262 297.3767)" fill="#80E880" font-family="'ArialMT'" font-size="12">41-60</text>
	<polyline fill="none" points="225.5,301.234 204.844,301.234 204.844,287.816 242.177,287.816 242.177,301.234 225.5,301.234 	"/>
	<text transform="matrix(1 0 0 1 204.844 298.3767)" fill="#80E880" font-family="'ArialMT'" font-size="12">61-80</text>
	<rect id="attr_age_l1" x="82.49" y="271.297" fill="#80E880" width="12.266" height="12.679"/>
	<rect id="attr_age_l2" x="123.156" y="271.297" fill="#80E880" width="12.27" height="12.679"/>
	<rect id="attr_age_l3" x="166.345" y="271.297" fill="#80E880" width="12.266" height="12.679"/>
	<rect id="attr_age_l4" x="211.244" y="271.297" fill="#80E880" width="12.266" height="12.679"/>
</g>
<g id="income">
	<rect id="attr_income_l1" x="85.977" y="338.848" fill="#80E880" width="12.27" height="12.675"/>
	<rect id="attr_income_l2" x="125.643" y="338.848" fill="#80E880" width="12.27" height="12.675"/>
	<rect id="attr_income_l3" x="166.832" y="338.848" fill="#80E880" width="12.266" height="12.675"/>
	<rect id="attr_income_l4" x="208.731" y="338.848" fill="#80E880" width="12.27" height="12.675"/>
	<rect id="attr_income_l5" x="246.064" y="338.848" fill="#80E880" width="12.27" height="12.675"/>
	<rect x="82.49" y="354.367" fill="none" width="37.329" height="13.417"/>
	<text transform="matrix(1 0 0 1 82.4905 364.0476)" fill="#80E880" font-family="'ArialMT'" font-size="11">&lt;100</text>
	<rect x="242.662" y="354.367" fill="none" width="37.334" height="13.417"/>
	<text transform="matrix(1 0 0 1 242.6619 364.0476)" fill="#80E880" font-family="'ArialMT'" font-size="11">&gt;500</text>
	<polyline fill="none" points="221.987,368.784 201.33,368.784 201.33,355.367 238.664,355.367 238.664,368.784 221.987,368.784 	
		"/>
	<text transform="matrix(1 0 0 1 201.3289 365.0476)" fill="#80E880" font-family="'ArialMT'" font-size="11">300-500</text>
	<rect x="156.748" y="354.367" fill="none" width="37.334" height="13.417"/>
	<text transform="matrix(1 0 0 1 156.7483 364.0476)" fill="#80E880" font-family="'ArialMT'" font-size="11">200-300</text>
	<rect x="113.242" y="354.367" fill="none" width="37.333" height="13.417"/>
	<text transform="matrix(1 0 0 1 113.2415 364.0476)" fill="#80E880" font-family="'ArialMT'" font-size="11">100-200</text>
</g>
<g id="dresslater_income_l1">
	<g>
		<path fill="#FFDA2D" d="M309.321,184.349h-2.614c-2.59,0-2.59,1.331,0,1.331h2.614
			C311.906,185.68,311.906,184.349,309.321,184.349z M309.321,185.236h-2.614c-0.86,0-0.86-0.443,0-0.443h2.614
			c0.367,0,0.654,0.102,0.654,0.226S309.688,185.236,309.321,185.236z"/>
		<g>
			<path fill="#FF9800" d="M310.982,184.366l2.003-0.348c1.984-0.35,4.509,0.272,2.521,0.621l-2.004,0.348
				C311.518,185.332,309.001,184.709,310.982,184.366z M313.823,184.225l-2.002,0.348c-0.662,0.114,0.184,0.321,0.841,0.206
				l2.003-0.347l0,0C315.324,184.318,314.486,184.11,313.823,184.225z"/>
			<path fill="#FF9800" d="M314.156,183.686l1.344-0.484c1.299-0.464,4.691-0.061,3.396,0.405l-1.34,0.48
				C316.281,184.55,312.85,184.156,314.156,183.686z M316.633,183.337l-1.34,0.485c-0.438,0.154,0.701,0.288,1.132,0.135
				l1.341-0.481l0,0C318.198,183.317,317.064,183.182,316.633,183.337z"/>
		</g>
		<g>
			<path fill="#FFDA2D" d="M302.825,184.99l-2.004-0.338c-1.979-0.333,0.528-0.938,2.522-0.604l2.003,0.341
				C307.337,184.721,304.816,185.325,302.825,184.99z M301.662,184.451L301.662,184.451l2.009,0.338
				c0.653,0.111,1.503-0.09,0.839-0.201l-2.002-0.338C301.84,184.138,301.007,184.342,301.662,184.451z"/>
			<path fill="#FFDA2D" d="M298.47,184.121l-1.3-0.468c-1.297-0.452,2.102-0.844,3.396-0.396l1.3,0.473
				C303.156,184.177,299.766,184.572,298.47,184.121z M300.735,183.859l-1.3-0.469c-0.427-0.149-1.567-0.021-1.133,0.131l0,0
				l1.3,0.469C300.031,184.139,301.161,184.01,300.735,183.859"/>
		</g>
		<path fill="#FF9800" d="M309.321,185.68h-1.308v-0.444h1.308c0.367,0,0.654-0.097,0.654-0.222c0-0.124-0.287-0.226-0.654-0.226
			h-1.308v-0.439h1.308C311.906,184.349,311.906,185.68,309.321,185.68z"/>
	</g>
	<g>
		<path fill="#FFDA2D" d="M308.108,186.002c-1.372,0-2.489,0.855-2.489,1.906c0,1.049,1.117,1.904,2.489,1.904
			s2.49-0.855,2.49-1.904C310.598,186.857,309.48,186.002,308.108,186.002z"/>
		<path fill="#FFBC33" d="M310.598,187.908c0,1.049-1.118,1.904-2.49,1.904V186C309.48,186.002,310.598,186.857,310.598,187.908z"/>
		<path fill="#FFA81F" d="M308.108,189.388c-1.066,0-1.937-0.665-1.937-1.48c0-0.817,0.865-1.479,1.937-1.479
			s1.938,0.66,1.938,1.479C310.044,188.723,309.176,189.388,308.108,189.388z"/>
		<path fill="#FF9800" d="M310.044,187.908c0-0.817-0.868-1.479-1.938-1.479v2.962C309.176,189.388,310.044,188.723,310.044,187.908
			z"/>
		<path fill="#FFDA2D" d="M308.429,188.915c-0.016,0.004-0.028,0.008-0.045,0.017v0.25c0,0.139-0.143,0.211-0.276,0.211
			c-0.139,0-0.277-0.072-0.277-0.211v-0.25c-0.144-0.038-0.277-0.102-0.404-0.191c-0.265-0.194,0.121-0.499,0.387-0.304
			c0.11,0.08,0.216,0.11,0.299,0.11c0.321,0,0.434-0.428,0-0.428c-0.93,0-1.146-0.99-0.281-1.229h0.004v-0.25
			c0-0.144,0.143-0.211,0.277-0.211s0.276,0.067,0.276,0.211v0.244c0.183,0.048,0.354,0.141,0.504,0.276
			c0.233,0.212-0.188,0.487-0.421,0.271c-0.133-0.122-0.264-0.164-0.359-0.164c-0.31,0.004-0.426,0.427,0,0.427
			C309.009,187.695,309.258,188.648,308.429,188.915z"/>
		<g>
			<path fill="#FFBC33" d="M308.429,188.915c-0.016,0.004-0.028,0.008-0.045,0.017v0.25c0,0.139-0.143,0.211-0.276,0.211v-0.846
				c0.321,0,0.432-0.428,0-0.428v-0.424C309.009,187.695,309.258,188.648,308.429,188.915z"/>
			<path fill="#FFBC33" d="M308.108,187.268v-0.842c0.138,0,0.276,0.067,0.276,0.211v0.241c0.183,0.051,0.354,0.144,0.504,0.279
				c0.237,0.212-0.188,0.487-0.421,0.271C308.334,187.31,308.203,187.268,308.108,187.268z"/>
		</g>
	</g>
</g>
<g id="dresslater_income_l2">
	<g>
		<path fill="#FFDA2D" d="M308.573,185.099c-2.2,0-3.985,1.603-3.985,3.564s1.785,3.564,3.985,3.564
			c2.199,0,3.991-1.604,3.991-3.564C312.565,186.702,310.773,185.099,308.573,185.099z"/>
		<path fill="#FFBC33" d="M312.565,188.668c0,1.964-1.792,3.564-3.991,3.564v-7.133
			C310.773,185.099,312.565,186.702,312.565,188.668z"/>
		<path fill="#FFA81F" d="M308.573,191.439c-1.71,0-3.104-1.245-3.104-2.771s1.395-2.771,3.104-2.771
			c1.711,0,3.104,1.243,3.104,2.771C311.678,190.194,310.281,191.439,308.573,191.439z"/>
		<path fill="#FF9800" d="M311.678,188.668c0-1.526-1.396-2.771-3.104-2.771v5.545C310.281,191.439,311.678,190.194,311.678,188.668
			z"/>
		<path fill="#FFDA2D" d="M309.087,190.552c-0.021,0.007-0.044,0.015-0.07,0.021v0.468c0,0.264-0.223,0.396-0.443,0.396
			c-0.223,0-0.441-0.136-0.441-0.396v-0.468c-0.229-0.072-0.449-0.184-0.653-0.358c-0.418-0.359,0.194-0.935,0.619-0.564
			c0.177,0.146,0.346,0.214,0.479,0.214c0.518,0,0.692-0.8,0-0.8c-1.486,0-1.836-1.854-0.449-2.31h0.008v-0.47
			c0-0.259,0.223-0.394,0.441-0.394c0.224,0,0.443,0.135,0.443,0.394v0.46c0.291,0.088,0.566,0.261,0.808,0.523
			c0.379,0.396-0.303,0.912-0.676,0.506c-0.212-0.229-0.416-0.309-0.575-0.309c-0.496,0.008-0.683,0.8,0,0.8
			C310.017,188.268,310.413,190.052,309.087,190.552z"/>
		<g>
			<path fill="#FFBC33" d="M309.087,190.552c-0.021,0.007-0.044,0.015-0.07,0.021v0.468c0,0.264-0.223,0.396-0.443,0.396v-1.576
				c0.518,0,0.692-0.8,0-0.8v-0.795C310.017,188.268,310.413,190.052,309.087,190.552z"/>
			<path fill="#FFBC33" d="M308.573,187.47v-1.576c0.225,0,0.443,0.135,0.443,0.394v0.46c0.291,0.088,0.568,0.265,0.808,0.523
				c0.379,0.396-0.303,0.912-0.676,0.506C308.937,187.549,308.733,187.47,308.573,187.47z"/>
		</g>
	</g>
	<g>
		<path fill="#FFDA2D" d="M310.073,183.355h-2.61c-2.594,0-2.594,1.744,0,1.744h2.61
			C312.663,185.099,312.663,183.355,310.073,183.355z M310.073,184.517h-2.61c-0.864,0-0.864-0.581,0-0.581h2.61
			c0.367,0,0.654,0.128,0.654,0.29C310.732,184.39,310.445,184.517,310.073,184.517z"/>
		<g>
			<path fill="#FF9800" d="M311.739,183.377l2.003-0.455c1.984-0.449,4.513,0.362,2.521,0.813l-2.004,0.456
				C312.275,184.642,309.758,183.826,311.739,183.377z M314.577,183.193l-2.002,0.455c-0.662,0.146,0.184,0.421,0.845,0.271
				l2.003-0.455l0,0C316.085,183.314,315.24,183.042,314.577,183.193z"/>
			<path fill="#FF9800" d="M314.913,182.486l1.345-0.635c1.298-0.607,4.69-0.079,3.396,0.527l-1.34,0.639
				C317.033,183.618,313.607,183.102,314.913,182.486z M317.39,182.028l-1.34,0.636c-0.438,0.202,0.705,0.378,1.132,0.177
				l1.341-0.636l0,0C318.952,182.003,317.821,181.826,317.39,182.028z"/>
		</g>
		<g>
			<path fill="#FFDA2D" d="M303.586,184.195l-2.008-0.443c-1.979-0.437,0.528-1.229,2.522-0.789l2.003,0.441
				C308.094,183.844,305.573,184.635,303.586,184.195z M302.423,183.488L302.423,183.488l2.005,0.443
				c0.657,0.146,1.503-0.118,0.839-0.268l-2.002-0.439C302.597,183.079,301.764,183.344,302.423,183.488z"/>
			<path fill="#FFDA2D" d="M299.227,183.055l-1.3-0.612c-1.297-0.593,2.102-1.105,3.396-0.521l1.3,0.614
				C303.912,183.129,300.523,183.647,299.227,183.055z M301.49,182.713l-1.3-0.61c-0.427-0.195-1.567-0.025-1.133,0.172l0,0
				l1.3,0.614C300.783,183.08,301.922,182.91,301.49,182.713"/>
		</g>
		<path fill="#FF9800" d="M310.073,185.099h-1.308v-0.582h1.308c0.367,0,0.654-0.127,0.654-0.291c0-0.162-0.287-0.29-0.654-0.29
			h-1.308v-0.581h1.308C312.663,183.355,312.663,185.099,310.073,185.099z"/>
	</g>
</g>
<g id="dresslater_income_l3">
	<g>
		<path fill="#FFDA2D" d="M308.227,184.349c-2.905,0-5.271,1.963-5.271,4.371c0,2.402,2.364,4.363,5.271,4.363
			c2.904,0,5.269-1.961,5.269-4.363C313.491,186.312,311.131,184.349,308.227,184.349z"/>
		<path fill="#FFBC33" d="M313.491,188.72c0,2.402-2.36,4.363-5.269,4.363v-8.734C311.131,184.349,313.491,186.312,313.491,188.72z"
			/>
		<path fill="#FFA81F" d="M308.227,192.116c-2.259,0-4.1-1.525-4.1-3.396c0-1.874,1.841-3.397,4.1-3.397
			c2.26,0,4.098,1.523,4.098,3.397C312.323,190.591,310.487,192.116,308.227,192.116z"/>
		<path fill="#FF9800" d="M312.323,188.72c0-1.874-1.838-3.397-4.098-3.397v6.793C310.487,192.116,312.323,190.591,312.323,188.72z"
			/>
		<path fill="#FFDA2D" d="M308.906,191.029c-0.021,0.01-0.059,0.019-0.095,0.03v0.568c0,0.318-0.294,0.484-0.584,0.484
			c-0.294,0-0.589-0.166-0.589-0.484v-0.568c-0.302-0.089-0.595-0.229-0.863-0.439c-0.551-0.44,0.257-1.146,0.818-0.697
			c0.229,0.188,0.457,0.267,0.634,0.267c0.679,0,0.914-0.98,0-0.98c-1.97,0-2.425-2.271-0.597-2.824h0.008v-0.569
			c0-0.32,0.295-0.484,0.589-0.484c0.29,0,0.584,0.164,0.584,0.484v0.563c0.387,0.108,0.75,0.319,1.067,0.645
			c0.501,0.481-0.4,1.117-0.896,0.618c-0.278-0.278-0.549-0.375-0.759-0.375c-0.655,0.008-0.902,0.979,0,0.979
			C310.133,188.232,310.657,190.418,308.906,191.029z"/>
		<g>
			<path fill="#FFBC33" d="M308.906,191.029c-0.021,0.01-0.059,0.019-0.095,0.03v0.568c0,0.318-0.294,0.484-0.584,0.484v-1.931
				c0.679,0,0.914-0.98,0-0.98v-0.973C310.133,188.232,310.657,190.418,308.906,191.029z"/>
			<path fill="#FFBC33" d="M308.227,187.255v-1.932c0.29,0,0.584,0.164,0.584,0.484v0.563c0.387,0.108,0.751,0.319,1.067,0.645
				c0.501,0.481-0.4,1.114-0.896,0.615C308.703,187.35,308.437,187.255,308.227,187.255z"/>
		</g>
	</g>
	<g>
		<path fill="#FFDA2D" d="M309.321,183.018h-2.614c-2.59,0-2.59,1.331,0,1.331h2.614
			C311.906,184.349,311.906,183.018,309.321,183.018z M309.321,183.905h-2.614c-0.86,0-0.86-0.443,0-0.443h2.614
			c0.367,0,0.654,0.102,0.654,0.226S309.688,183.905,309.321,183.905z"/>
		<g>
			<path fill="#FF9800" d="M310.982,183.035l2.003-0.348c1.984-0.35,4.509,0.272,2.521,0.621l-2.004,0.348
				C311.518,184.001,309.001,183.378,310.982,183.035z M313.823,182.894l-2.002,0.348c-0.662,0.114,0.184,0.321,0.841,0.206
				l2.003-0.347l0,0C315.324,182.987,314.486,182.779,313.823,182.894z"/>
			<path fill="#FF9800" d="M314.156,182.355l1.344-0.484c1.299-0.464,4.691-0.061,3.396,0.405l-1.34,0.484
				C316.281,183.219,312.85,182.825,314.156,182.355z M316.633,182.006l-1.34,0.485c-0.438,0.154,0.701,0.288,1.132,0.135
				l1.341-0.481l0,0C318.198,181.986,317.064,181.851,316.633,182.006z"/>
		</g>
		<g>
			<path fill="#FFDA2D" d="M302.825,183.659l-2.004-0.338c-1.979-0.333,0.528-0.938,2.522-0.603l2.003,0.337
				C307.337,183.39,304.816,183.994,302.825,183.659z M301.662,183.12L301.662,183.12l2.009,0.338
				c0.653,0.111,1.503-0.09,0.839-0.201l-2.002-0.338C301.84,182.807,301.007,183.01,301.662,183.12z"/>
			<path fill="#FFDA2D" d="M298.47,182.79l-1.3-0.468c-1.297-0.452,2.102-0.844,3.396-0.395l1.3,0.469
				C303.156,182.845,299.766,183.241,298.47,182.79z M300.735,182.528l-1.3-0.469c-0.427-0.149-1.567-0.021-1.133,0.131l0,0
				l1.3,0.469C300.031,182.808,301.161,182.678,300.735,182.528"/>
		</g>
		<path fill="#FF9800" d="M309.321,184.349h-1.308v-0.444h1.308c0.367,0,0.654-0.097,0.654-0.222c0-0.124-0.287-0.226-0.654-0.226
			h-1.308v-0.439h1.308C311.906,183.018,311.906,184.349,309.321,184.349z"/>
	</g>
</g>
<g id="dresslater_income_l4">
	<g>
		<path fill="#FFDA2D" d="M308.098,186.323c-3.435,0-6.221,2.731-6.221,6.085c0,3.348,2.786,6.076,6.221,6.076
			c3.43,0,6.223-2.729,6.223-6.076C314.321,189.054,311.528,186.323,308.098,186.323z"/>
		<path fill="#FFBC33" d="M314.321,192.408c0,3.348-2.793,6.076-6.223,6.076v-12.161
			C311.528,186.323,314.321,189.054,314.321,192.408z"/>
		<path fill="#FFA81F" d="M308.098,197.132c-2.666,0-4.841-2.119-4.841-4.724c0-2.608,2.175-4.729,4.841-4.729
			c2.667,0,4.839,2.117,4.839,4.729C312.937,195.01,310.765,197.132,308.098,197.132z"/>
		<path fill="#FF9800" d="M312.937,192.408c0-2.608-2.172-4.729-4.839-4.729v9.449C310.765,197.132,312.937,195.01,312.937,192.408z
			"/>
		<path fill="#FFDA2D" d="M308.899,195.62c-0.027,0.013-0.068,0.026-0.11,0.041v0.798c0,0.442-0.347,0.673-0.688,0.673
			c-0.347,0-0.694-0.229-0.694-0.673v-0.798c-0.354-0.123-0.701-0.313-1.019-0.611c-0.652-0.615,0.303-1.595,0.965-0.969
			c0.273,0.255,0.54,0.365,0.748,0.365c0.801,0,1.079-1.366,0-1.366c-2.323,0-2.863-3.161-0.704-3.931h0.01v-0.799
			c0-0.442,0.352-0.672,0.694-0.672s0.688,0.229,0.688,0.672v0.784c0.455,0.146,0.889,0.439,1.263,0.893
			c0.591,0.675-0.475,1.554-1.057,0.861c-0.33-0.394-0.646-0.522-0.896-0.522c-0.773,0.01-1.065,1.361,0,1.361
			C310.349,191.727,310.972,194.768,308.899,195.62z"/>
		<g>
			<path fill="#FFBC33" d="M308.899,195.62c-0.027,0.013-0.068,0.026-0.11,0.041v0.798c0,0.442-0.347,0.673-0.688,0.673v-2.686
				c0.801,0,1.079-1.366,0-1.366v-1.353C310.349,191.727,310.972,194.768,308.899,195.62z"/>
			<path fill="#FFBC33" d="M308.098,190.366v-2.688c0.344,0,0.688,0.229,0.688,0.672v0.78c0.455,0.149,0.891,0.443,1.263,0.896
				c0.591,0.675-0.475,1.554-1.057,0.861C308.66,190.499,308.346,190.366,308.098,190.366z"/>
		</g>
	</g>
	<path fill="#FFDA2D" d="M309.689,183.679h-2.854c-2.829,0-2.829,2.498,0,2.498h2.854
		C312.517,186.177,312.517,183.679,309.689,183.679z M309.689,185.344h-2.854c-0.945,0-0.945-0.832,0-0.832h2.854
		c0.401,0,0.714,0.184,0.714,0.415C310.403,185.161,310.09,185.344,309.689,185.344z"/>
	<g>
		<path fill="#FF9800" d="M311.503,183.71l2.187-0.648c2.167-0.648,4.924,0.52,2.754,1.166l-2.188,0.648
			C312.088,185.522,309.339,184.353,311.503,183.71z M314.608,183.446l-2.187,0.652c-0.728,0.215,0.191,0.604,0.918,0.388
			l2.188-0.652l0,0C316.25,183.621,315.324,183.229,314.608,183.446z"/>
		<path fill="#FF9800" d="M314.974,182.434l1.465-0.909c1.417-0.87,5.126-0.114,3.708,0.761l-1.463,0.909
			C317.285,184.055,313.543,183.317,314.974,182.434z M317.674,181.778l-1.463,0.911c-0.479,0.289,0.771,0.54,1.231,0.253
			l1.465-0.91l0,0C319.385,181.742,318.145,181.489,317.674,181.778z"/>
	</g>
	<g>
		<path fill="#FFDA2D" d="M302.6,184.882l-2.188-0.635c-2.158-0.625,0.577-1.76,2.759-1.13l2.188,0.632
			C307.523,184.377,304.769,185.51,302.6,184.882z M301.325,183.869L301.325,183.869l2.189,0.635
			c0.718,0.209,1.641-0.168,0.917-0.377l-2.188-0.636C301.52,183.284,300.61,183.663,301.325,183.869z"/>
		<path fill="#FFDA2D" d="M297.839,183.25l-1.42-0.878c-1.415-0.848,2.296-1.583,3.709-0.74l1.42,0.884
			C302.96,183.354,299.254,184.097,297.839,183.25z M300.312,182.76l-1.419-0.884c-0.467-0.275-1.712-0.032-1.237,0.246l0,0
			l1.419,0.88C299.543,183.285,300.781,183.041,300.312,182.76"/>
	</g>
	<path fill="#FF9800" d="M309.689,186.177h-1.429v-0.834h1.429c0.401,0,0.714-0.187,0.714-0.417c0-0.231-0.313-0.415-0.714-0.415
		h-1.429v-0.832h1.429C312.517,183.679,312.517,186.177,309.689,186.177z"/>
</g>
<g id="dresslater_income_l5">
	<g>
		<path fill="#FFDA2D" d="M309.528,187.471c-4.604,0-8.351,3.215-8.351,7.157c0,3.94,3.746,7.151,8.351,7.151
			c4.605,0,8.354-3.211,8.354-7.151C317.881,190.686,314.131,187.471,309.528,187.471z"/>
		<path fill="#FFBC33" d="M317.881,194.632c0,3.94-3.75,7.151-8.354,7.151V187.47C314.131,187.471,317.881,190.686,317.881,194.632z
			"/>
		<path fill="#FFA81F" d="M309.528,200.192c-3.579,0-6.497-2.499-6.497-5.563c0-3.066,2.918-5.563,6.497-5.563
			c3.581,0,6.497,2.496,6.497,5.563C316.025,197.693,313.109,200.192,309.528,200.192z"/>
		<path fill="#FF9800" d="M316.025,194.632c0-3.066-2.916-5.563-6.497-5.563v11.126
			C313.109,200.192,316.025,197.693,316.025,194.632z"/>
		<path fill="#FFDA2D" d="M310.604,198.412c-0.038,0.02-0.093,0.03-0.148,0.048v0.939c0,0.521-0.466,0.792-0.928,0.792
			c-0.466,0-0.932-0.271-0.932-0.792v-0.939c-0.479-0.145-0.941-0.363-1.367-0.719c-0.876-0.729,0.406-1.876,1.295-1.142
			c0.37,0.301,0.725,0.43,1.004,0.43c1.076,0,1.449-1.606,0-1.606c-3.119,0-3.843-3.721-0.94-4.627h0.013v-0.938
			c0-0.521,0.466-0.791,0.932-0.791c0.462,0,0.93,0.27,0.93,0.791v0.923c0.608,0.176,1.188,0.521,1.688,1.05
			c0.794,0.796-0.633,1.83-1.413,1.018c-0.441-0.458-0.871-0.613-1.205-0.613c-1.037,0.012-1.431,1.602,0,1.602
			C312.55,193.831,313.386,197.41,310.604,198.412z"/>
		<g>
			<path fill="#FFBC33" d="M310.604,198.412c-0.038,0.02-0.093,0.03-0.148,0.048v0.939c0,0.521-0.466,0.792-0.928,0.792v-3.162
				c1.076,0,1.449-1.606,0-1.606v-1.592C312.55,193.831,313.386,197.41,310.604,198.412z"/>
			<path fill="#FFBC33" d="M309.528,192.23v-3.164c0.462,0,0.928,0.27,0.928,0.791v0.923c0.61,0.176,1.19,0.521,1.69,1.05
				c0.794,0.796-0.633,1.83-1.413,1.018C310.284,192.385,309.862,192.23,309.528,192.23z"/>
		</g>
	</g>
	<g>
		<path fill="#FFDA2D" d="M311.169,184.227h-3.112c-3.085,0-3.085,2.515,0,2.515h3.112
			C314.254,186.741,314.254,184.227,311.169,184.227z M311.169,185.901h-3.112c-1.029,0-1.029-0.837,0-0.837h3.112
			c0.438,0,0.776,0.186,0.776,0.42C311.948,185.72,311.607,185.901,311.169,185.901z"/>
		<g>
			<path fill="#FF9800" d="M313.148,184.257l2.386-0.651c2.363-0.653,5.37,0.521,3.004,1.173l-2.388,0.655
				C313.783,186.082,310.786,184.906,313.148,184.257z M316.531,183.992l-2.385,0.656c-0.788,0.216,0.214,0.604,1.001,0.39
				l2.386-0.65l0,0C318.323,184.167,317.321,183.776,316.531,183.992z"/>
			<path fill="#FF9800" d="M316.934,182.974l1.597-0.915c1.546-0.876,5.591-0.114,4.045,0.766l-1.595,0.916
				C319.459,184.606,315.368,183.861,316.934,182.974z M319.878,182.315l-1.6,0.916c-0.517,0.292,0.84,0.545,1.352,0.254
				l1.598-0.917l0,0C321.74,182.277,320.392,182.023,319.878,182.315z"/>
		</g>
		<g>
			<path fill="#FFDA2D" d="M303.439,185.438l-2.387-0.643c-2.356-0.629,0.63-1.771,3.005-1.138l2.386,0.635
				C308.808,184.929,305.805,186.069,303.439,185.438z M302.054,184.419L302.054,184.419l2.388,0.642
				c0.782,0.21,1.79-0.169,0.999-0.38l-2.385-0.643C302.262,183.829,301.269,184.212,302.054,184.419z"/>
			<path fill="#FFDA2D" d="M298.243,183.795l-1.545-0.885c-1.548-0.853,2.5-1.592,4.042-0.744l1.553,0.89
				C303.828,183.9,299.787,184.647,298.243,183.795z M300.945,183.302l-1.548-0.89c-0.508-0.282-1.867-0.036-1.349,0.247l0,0
				l1.547,0.886C300.107,183.83,301.453,183.584,300.945,183.302"/>
		</g>
		<path fill="#FF9800" d="M311.169,186.741h-1.561V185.9h1.561c0.438,0,0.776-0.181,0.776-0.417c0-0.234-0.343-0.42-0.776-0.42
			h-1.561v-0.837h1.561C314.254,184.227,314.254,186.741,311.169,186.741z"/>
	</g>
</g>
<g id="edu">
	<rect id="attr_edu_l1" x="380.49" y="339.297" fill="#80E880" width="12.27" height="12.679"/>
	<rect id="attr_edu_l2" x="431.637" y="339.297" fill="#80E880" width="12.266" height="12.679"/>
	<rect id="attr_edu_l3" x="481.281" y="339.297" fill="#80E880" width="12.27" height="12.679"/>
	<rect id="attr_edu_l4" x="527.75" y="339.297" fill="#80E880" width="12.266" height="12.679"/>
	<polyline fill="none" points="539.5,369.234 518.844,369.234 518.844,355.816 556.178,355.816 556.178,369.234 539.5,369.234 	"/>
	<text transform="matrix(1 0 0 1 518.844 363.7361)" fill="#80E880" font-family="'ArialMT'" font-size="8">graduate</text>
	<rect x="464.262" y="355.816" fill="none" width="55.582" height="12.417"/>
	<text transform="matrix(1 0 0 1 464.262 363.7361)" fill="#80E880" font-family="'ArialMT'" font-size="8">undergradate</text>
	<rect x="355.612" y="355.816" fill="none" width="60.146" height="12.417"/>
	<text transform="matrix(1 0 0 1 355.6116 363.7361)" fill="#80E880" font-family="'ArialMT'" font-size="8">primary/middle</text>
	<rect x="416.756" y="355.816" fill="none" width="46.023" height="12.417"/>
	<text transform="matrix(1 0 0 1 416.7561 363.7361)" fill="#80E880" font-family="'ArialMT'" font-size="8">high school</text>
</g>
<path id="dresslater_edu_l2" d="M331.429,144.306h-1.738c-0.758-4.523-4.664-7.982-9.367-7.982c-4.643,0-8.525,3.288-9.429,7.646
	c-0.774-0.65-1.658-0.995-2.59-0.995c-0.935,0-1.813,0.345-2.587,0.994c-0.895-4.358-4.729-7.646-9.316-7.646
	c-5.036,0-9.176,3.873-9.585,8.781h-1.636c-0.441,0-0.798,0.354-0.798,0.798s0.354,0.798,0.798,0.798h1.636
	c0.409,4.908,4.553,8.781,9.585,8.781c5.157,0,9.358-4.156,9.498-9.316c0.68-1.022,1.526-1.593,2.405-1.593s1.726,0.568,2.406,1.593
	c0.142,5.16,4.395,9.316,9.608,9.316c5.244,0,9.511-4.297,9.511-9.579h1.599c0.438,0,0.798-0.357,0.798-0.798
	C332.227,144.663,331.866,144.306,331.429,144.306z M296.402,153.885c-4.428,0-8.027-3.581-8.027-7.982s3.604-7.982,8.027-7.982
	c4.439,0,7.917,3.51,7.917,7.982S300.841,153.885,296.402,153.885z M320.323,153.885c-4.428,0-8.031-3.581-8.031-7.982
	s3.604-7.982,8.031-7.982c4.439,0,7.916,3.51,7.916,7.982S324.763,153.885,320.323,153.885z"/>
<g id="dresslater_edu_l3">
	<g>
		<g>
			<path d="M296.475,137.385c-5.104,0-9.259,3.89-9.259,8.671c0,4.777,4.153,8.67,9.259,8.67s9.258-3.894,9.258-8.67
				C305.734,141.273,301.577,137.385,296.475,137.385z M296.475,151.7c-3.325,0-6.029-2.532-6.029-5.646
				c0-3.114,2.705-5.646,6.029-5.646s6.029,2.533,6.029,5.646C302.504,149.167,299.799,151.7,296.475,151.7z"/>
		</g>
	</g>
	<g>
		<g>
			<path d="M319.73,137.385c-5.119,0-9.284,3.89-9.284,8.671c0,4.777,4.166,8.67,9.284,8.67s9.283-3.894,9.283-8.67
				C329.013,141.273,324.848,137.385,319.73,137.385z M319.73,151.7c-3.333,0-6.045-2.532-6.045-5.646
				c0-3.114,2.712-5.646,6.045-5.646s6.045,2.533,6.045,5.646C325.775,149.167,323.063,151.7,319.73,151.7z"/>
		</g>
	</g>
	<g>
		<g>
			<path d="M308.161,141.719c-1.99,0-3.876,1.093-5.03,2.924l2.567,1.607c0.607-0.96,1.507-1.511,2.463-1.511
				c0.882,0,1.697,0.471,2.311,1.328l2.479-1.749C311.774,142.668,310.03,141.719,308.161,141.719z"/>
		</g>
	</g>
	<g>
		<g>
			<rect x="326.354" y="144.391" width="5.319" height="3.021"/>
		</g>
	</g>
	<g>
		<g>
			<rect x="284.658" y="144.391" width="5.113" height="3.021"/>
		</g>
	</g>
</g>
<g id="dresslater_edu_l4">
	<path d="M329.858,143.206c-0.127,0-0.244-0.082-0.271-0.19c-1.232-4.615-5.279-7.832-9.854-7.832c-0.146,0-0.283,0-0.431,0.01
		c-3.562,0.153-6.774,2.273-8.505,5.504c-0.909-0.408-1.896-0.613-2.903-0.613c-0.997,0-1.979,0.205-2.884,0.613
		c-1.789-3.38-5.19-5.514-8.955-5.514c-4.574,0-8.622,3.217-9.854,7.832c-0.028,0.123-0.146,0.2-0.272,0.2h-1.956v5.331h1.956
		c0.127,0,0.244,0.082,0.272,0.194c1.229,4.616,5.276,7.832,9.854,7.832c0.147,0,0.284,0,0.431-0.01
		c2.464-0.104,4.813-1.154,6.618-2.961c1.76-1.756,2.864-4.075,3.118-6.56c0.304-0.664,0.958-1.103,1.672-1.103
		c0.704,0,1.34,0.418,1.652,1.072c0.264,2.569,1.404,4.963,3.241,6.729c1.897,1.828,4.36,2.839,6.941,2.839
		c4.575,0,8.622-3.216,9.854-7.832c0.025-0.123,0.146-0.204,0.271-0.204h1.955v-5.331h-1.955L329.858,143.206L329.858,143.206z
		 M324.96,145.872c0,3.012-2.351,5.463-5.23,5.463s-5.23-2.451-5.23-5.463s2.351-5.463,5.23-5.463S324.96,142.86,324.96,145.872z
		 M301.273,145.872c0,3.012-2.346,5.463-5.229,5.463s-5.229-2.451-5.229-5.463s2.35-5.463,5.229-5.463
		C298.937,140.408,301.273,142.86,301.273,145.872z"/>
</g>
<g id="resident">
	<rect id="attr_resident_1" x="382.766" y="403.868" fill="#80E880" width="12.266" height="12.675"/>
	<polyline id="attr_resident_2" fill="#80E880" points="447.356,417.094 447.356,404.419 459.617,404.419 459.617,417.094 
		447.356,417.094 	"/>
	<rect id="attr_resident_3" x="509.387" y="404.419" fill="#80E880" width="12.266" height="12.679"/>
	<rect x="438.949" y="418.887" fill="none" width="37.334" height="13.417"/>
	<text transform="matrix(1 0 0 1 438.9534 429.447)" fill="#80E880" font-family="'ArialMT'" font-size="12">outer</text>
	<polyline fill="none" points="520.627,432.304 489.74,432.304 489.74,418.887 545.566,418.887 545.566,432.304 520.627,432.304 	
		"/>
	<text transform="matrix(1 0 0 1 489.7405 429.447)" fill="#80E880" font-family="'ArialMT'" font-size="12">temporary</text>
	<rect x="378.778" y="418.887" fill="none" width="37.332" height="13.417"/>
	<text transform="matrix(1 0 0 1 378.7776 429.447)" fill="#80E880" font-family="'ArialMT'" font-size="12">local</text>
</g>
<g id="dresslater_resident_2">
	<g>
		<path d="M460.701,92.997h-37.139c-2.563,0-4.642,2.287-4.642,5.106v25.532c0,2.816,2.079,5.104,4.642,5.104h37.139
			c2.564,0,4.646-2.286,4.646-5.104V98.103C465.348,95.284,463.27,92.997,460.701,92.997z M427.629,103.071
			c0-3.508,2.362-5.199,4.348-5.199c2.051,0,4.349,1.691,4.349,5.199v2.599c0,3.513-3.185,5.199-4.349,5.199
			c-1.102,0-4.348-1.688-4.348-5.199V103.071z M440.686,120.618c0,2.358-0.708,3.249-2.901,3.249H426.18
			c-2.193,0-2.901-0.891-2.901-3.249c-0.003-0.026,0-1.597,0-1.625c0-1.785,0.729-4.302,3.301-6.25
			c1.067-0.808,2.417,0.495,3.953,2.01l0.424,0.479c0.018,0.015,0.481,0.515,1.038,0.515c0.565,0,1.021-0.521,1.021-0.521v0.001
			l0.419-0.474c1.536-1.515,2.698-2.792,3.953-2.01c2.714,1.691,3.301,4.465,3.301,6.25
			C440.686,119.021,440.689,120.592,440.686,120.618z M459.545,120.618h-13.061c-0.802,0-1.45-0.728-1.45-1.625
			c0-0.896,0.648-1.625,1.45-1.625h13.061c0.802,0,1.446,0.729,1.446,1.625C460.991,119.89,460.347,120.618,459.545,120.618z
			 M459.545,112.494h-13.061c-0.802,0-1.45-0.728-1.45-1.625c0-0.896,0.648-1.625,1.45-1.625h13.061
			c0.802,0,1.446,0.729,1.446,1.625C460.991,111.766,460.347,112.494,459.545,112.494z M459.545,104.371h-13.061
			c-0.802,0-1.45-0.728-1.45-1.625c0-0.896,0.648-1.625,1.45-1.625h13.061c0.802,0,1.446,0.729,1.446,1.625
			C460.991,103.643,460.347,104.371,459.545,104.371z"/>
	</g>
</g>
<g id="dresslater_resident_3">
	<g>
		<path fill="#FA7A92" d="M460.701,92.151h-37.139c-2.563,0-4.642,2.394-4.642,5.348v26.742c0,2.953,2.077,5.348,4.642,5.348h37.139
			c2.564,0,4.646-2.395,4.646-5.348V97.499C465.348,94.545,463.27,92.151,460.701,92.151z M427.629,102.702
			c0-3.674,2.362-5.446,4.348-5.446c2.051,0,4.348,1.771,4.348,5.446v2.722c0,3.68-3.184,5.446-4.348,5.446
			c-1.102,0-4.348-1.77-4.348-5.446V102.702z M440.686,121.08c0,2.469-0.709,3.403-2.901,3.403H426.18
			c-2.193,0-2.901-0.938-2.901-3.403c-0.003-0.023,0-1.672,0-1.702c0-1.87,0.729-4.504,3.301-6.545
			c1.067-0.846,2.417,0.521,3.952,2.105l0.424,0.497c0.019,0.016,0.482,0.54,1.039,0.54c0.564,0,1.021-0.546,1.021-0.546v0.001
			l0.42-0.492c1.536-1.587,2.697-2.925,3.953-2.105c2.714,1.771,3.301,4.681,3.301,6.545
			C440.686,119.407,440.689,121.053,440.686,121.08z M459.545,121.08h-13.061c-0.802,0-1.451-0.763-1.451-1.702
			c0-0.938,0.649-1.698,1.451-1.698h13.061c0.801,0,1.446,0.762,1.446,1.698C460.992,120.317,460.346,121.08,459.545,121.08z
			 M459.545,112.572h-13.061c-0.802,0-1.451-0.762-1.451-1.702c0-0.938,0.649-1.701,1.451-1.701h13.061
			c0.801,0,1.446,0.766,1.446,1.701C460.992,111.809,460.346,112.572,459.545,112.572z M459.545,104.063h-13.061
			c-0.802,0-1.451-0.767-1.451-1.702c0-0.94,0.649-1.702,1.451-1.702h13.061c0.801,0,1.446,0.762,1.446,1.702
			C460.992,103.302,460.346,104.063,459.545,104.063z"/>
	</g>
</g>
<g id="dresslater_resident_1">
	<g>
		<path fill="#D80027" d="M460.018,92.51h-35.764c-2.472,0-4.473,2.35-4.473,5.242v26.229c0,2.896,2.001,5.245,4.473,5.245h35.764
			c2.469,0,4.471-2.353,4.471-5.245V97.757C464.489,94.86,462.487,92.51,460.018,92.51z M428.162,102.859
			c0-3.604,2.279-5.341,4.188-5.341c1.975,0,4.188,1.733,4.188,5.341v2.67c0,3.605-3.063,5.341-4.188,5.341
			c-1.063,0-4.188-1.731-4.188-5.341V102.859z M440.74,120.885c0,2.423-0.682,3.337-2.794,3.337h-11.174
			c-2.112,0-2.795-0.914-2.795-3.337c-0.002-0.026,0-1.644,0-1.673c0-1.834,0.7-4.419,3.18-6.421c1.027-0.83,2.326,0.513,3.81,2.065
			l0.403,0.487c0.018,0.016,0.465,0.526,1,0.526c0.545,0,0.982-0.536,0.982-0.536v0.001l0.403-0.479
			c1.479-1.558,2.597-2.869,3.806-2.065c2.615,1.737,3.179,4.587,3.179,6.421C440.74,119.245,440.74,120.858,440.74,120.885z
			 M458.901,120.885h-12.572c-0.771,0-1.396-0.748-1.396-1.673c0-0.922,0.625-1.669,1.396-1.669h12.572
			c0.771,0,1.396,0.747,1.396,1.669C460.297,120.136,459.672,120.885,458.901,120.885z M458.901,112.54h-12.572
			c-0.771,0-1.396-0.748-1.396-1.67c0-0.921,0.625-1.669,1.396-1.669h12.572c0.771,0,1.396,0.748,1.396,1.669
			C460.297,111.792,459.672,112.54,458.901,112.54z M458.901,104.194h-12.572c-0.771,0-1.396-0.748-1.396-1.669
			c0-0.922,0.625-1.669,1.396-1.669h12.572c0.771,0,1.396,0.747,1.396,1.669C460.297,103.446,459.672,104.194,458.901,104.194z"/>
	</g>
</g>
<g id="car">
	<rect id="attr_car_2" x="214.755" y="476.814" fill="#80E880" width="12.266" height="12.651"/>
	<text transform="matrix(1 0 0 1 190.3372 488.6111)" fill="#80E880" font-family="'ArialMT'" font-size="15">no</text>
	<text transform="matrix(1 0 0 1 108.9749 487.6589)" fill="#80E880" font-family="'ArialMT'" font-size="15">yes</text>
	<rect id="attr_car_1" x="141.643" y="476.76" fill="#80E880" width="12.27" height="12.647"/>
</g>
<g id="house">
	<rect id="attr_house_2" x="501.445" y="476.786" fill="#80E880" width="12.27" height="12.651"/>
	<text transform="matrix(1 0 0 1 470.0266 488.5837)" fill="#80E880" font-family="'ArialMT'" font-size="15">rent</text>
	<text transform="matrix(1 0 0 1 395.6663 487.6316)" fill="#80E880" font-family="'ArialMT'" font-size="15">own</text>
	<rect id="attr_house_1" x="428.328" y="476.731" fill="#80E880" width="12.27" height="12.651"/>
</g>
<g id="dresslater_car_1">
	<path fill="#008DB3" d="M206.444,195.632c-0.857-2.119-2.753-3.713-5.089-3.99l-8.86-1.064l-4.729-8.082
		c-1.208-2.063-3.351-3.325-5.658-3.325H166.84c-3.979,0-7.465,2.794-8.521,6.828l-0.116,0.456c-0.334,1.281-0.979,2.421-1.84,3.331
		c-0.856,0.912-1.938,1.592-3.153,1.953c-1.313,0.389-2.222,1.646-2.222,3.08v8.969l4.826-1.187c0.104-0.249,0.217-0.49,0.349-0.729
		c1.201-2.19,3.444-3.558,5.854-3.558c2.407,0,4.648,1.364,5.854,3.558c0.128,0.235,0.241,0.479,0.346,0.729h20.49
		c0.098-0.246,0.213-0.485,0.34-0.722c1.204-2.195,3.448-3.563,5.855-3.563c2.408,0,4.649,1.364,5.854,3.558
		c0.129,0.235,0.246,0.479,0.345,0.729h5.381l0.034,0.004l0.393-3.62c0.019-0.149,0.026-0.295,0.033-0.442
		C206.986,197.514,206.806,196.526,206.444,195.632z"/>
	<path fill="#CCCCCC" d="M208.032,204.192L208.032,204.192c0,0.879-0.682,1.592-1.519,1.592h-4.873
		c0.006-0.122,0.009-0.245,0.009-0.367c0-0.974-0.188-1.936-0.555-2.815l5.42,0.003C207.355,202.6,208.032,203.313,208.032,204.192z
		"/>
	<path fill="#666666" d="M200.273,205.416c0,0.123-0.003,0.246-0.012,0.367c-0.18,2.948-2.51,5.281-5.359,5.281
		c-2.852,0-5.182-2.333-5.357-5.281c-0.008-0.122-0.015-0.245-0.015-0.367c0-1.021,0.261-1.981,0.709-2.813
		c0.932-1.695,2.673-2.837,4.662-2.837c1.99,0,3.729,1.139,4.655,2.831C200.012,203.427,200.273,204.39,200.273,205.416z
		 M197.104,205.416c0-1.273-0.983-2.313-2.203-2.313c-1.216,0-2.203,1.04-2.203,2.313c0,1.277,0.987,2.317,2.203,2.317
		C196.116,207.734,197.104,206.694,197.104,205.416z"/>
	<path fill="#E6E6E6" d="M194.901,203.099c1.219,0,2.203,1.04,2.203,2.313c0,1.277-0.983,2.317-2.203,2.317
		c-1.216,0-2.203-1.04-2.203-2.317C192.698,204.139,193.685,203.099,194.901,203.099z"/>
	<path fill="#CCCCCC" d="M188.147,205.416c0,0.123,0.004,0.247,0.015,0.367H168.76c0.006-0.123,0.011-0.246,0.011-0.367
		c0-0.974-0.188-1.936-0.555-2.815h20.49C188.337,203.483,188.147,204.444,188.147,205.416z"/>
	<path fill="#76CDCE" d="M164.531,182.866v7.708h-4.201c0,0,0.485-2.092,0.8-3.276l0.12-0.452c0.063-0.241,0.14-0.479,0.229-0.703
		C162.055,184.656,163.165,183.491,164.531,182.866z"/>
	<path fill="#76CDCE" d="M175.092,182.359v8.215h-8.675v-8.197c0.14-0.013,0.282-0.018,0.423-0.018H175.092L175.092,182.359z"/>
	<path fill="#76CDCE" d="M188.927,190.573h-11.95v-8.215h5.128c1.243,0,2.422,0.688,3.072,1.806L188.927,190.573z"/>
	<path fill="#666666" d="M167.373,205.783c-0.183,2.948-2.515,5.281-5.359,5.281c-2.851,0-5.182-2.333-5.361-5.281
		c-0.009-0.122-0.012-0.245-0.012-0.367c0-1.022,0.261-1.986,0.714-2.815c0.933-1.691,2.667-2.831,4.659-2.831
		c1.99,0,3.729,1.139,4.654,2.831c0.457,0.829,0.716,1.793,0.716,2.815C167.384,205.539,167.381,205.662,167.373,205.783z
		 M164.217,205.416c0-1.273-0.989-2.313-2.203-2.313c-1.217,0-2.205,1.04-2.205,2.313c0,1.277,0.987,2.317,2.205,2.317
		C163.228,207.734,164.217,206.694,164.217,205.416z"/>
	<path fill="#E6E6E6" d="M162.014,203.099c1.214,0,2.203,1.04,2.203,2.313c0,1.277-0.989,2.317-2.203,2.317
		c-1.217,0-2.205-1.04-2.205-2.317C159.809,204.139,160.797,203.099,162.014,203.099z"/>
	<path fill="#CCCCCC" d="M155.26,205.416c0,0.123,0.003,0.246,0.009,0.367h-3.792c-0.837,0-1.515-0.713-1.515-1.593l0,0
		c0-0.88,0.678-1.593,1.515-1.593h4.337C155.448,203.482,155.26,204.442,155.26,205.416z"/>
	<path fill="#CCCCCC" d="M182.154,194.922h-1.979c-0.417,0-0.754-0.354-0.754-0.793c0-0.438,0.337-0.792,0.754-0.792h1.979
		c0.417,0,0.758,0.355,0.758,0.792C182.908,194.567,182.571,194.922,182.154,194.922z"/>
	<path fill="#CCCCCC" d="M168.558,194.922h-1.979c-0.416,0-0.754-0.354-0.754-0.793c0-0.438,0.339-0.792,0.754-0.792h1.979
		c0.416,0,0.754,0.355,0.754,0.792C169.312,194.567,168.974,194.922,168.558,194.922z"/>
	<path fill="#FFFFFF" d="M206.939,198.539h-1.514c-1.527,0-2.764-1.302-2.764-2.907l0,0h3.779
		C206.86,196.588,207.048,197.53,206.939,198.539z"/>
	<polygon fill="#96E0DE" points="175.092,182.376 175.092,190.573 174.209,190.573 166.417,182.376 	"/>
	<path fill="#96E0DE" d="M188.927,190.573h-4.139l-7.813-8.215h5.128c1.243,0,2.422,0.688,3.072,1.806L188.927,190.573z"/>
	<path fill="#96E0DE" d="M164.531,182.866v6.487l-3.057-3.214C162.055,184.656,163.165,183.491,164.531,182.866z"/>
</g>
<g id="dresslater_car_2">
	<path fill="#B3B3B3" d="M206.052,195.419c-0.846-2.042-2.702-3.568-4.998-3.843l-8.705-1.021l-4.642-7.774
		c-1.188-1.987-3.292-3.199-5.562-3.199h-14.987c-3.906,0-7.332,2.688-8.369,6.568l-0.117,0.438
		c-0.329,1.232-0.958,2.329-1.805,3.205c-0.848,0.877-1.907,1.532-3.104,1.879c-1.287,0.374-2.179,1.584-2.179,2.964v8.629
		l4.739-1.144c0.1-0.239,0.214-0.472,0.34-0.699c1.183-2.105,3.385-3.422,5.75-3.422c2.359,0,4.563,1.313,5.747,3.422
		c0.126,0.229,0.237,0.46,0.34,0.699h20.123c0.096-0.234,0.209-0.468,0.333-0.688c1.183-2.115,3.387-3.434,5.755-3.434
		c2.365,0,4.563,1.313,5.749,3.422c0.126,0.229,0.24,0.46,0.338,0.699h5.284l0.034,0.004l0.383-3.479
		c0.017-0.146,0.023-0.284,0.035-0.429C206.584,197.229,206.408,196.278,206.052,195.419z"/>
	<path fill="#CCCCCC" d="M207.612,203.653L207.612,203.653c0,0.847-0.666,1.531-1.483,1.531h-4.786
		c0.006-0.116,0.009-0.235,0.009-0.354c0-0.937-0.186-1.857-0.545-2.711l5.324,0.002
		C206.946,202.122,207.612,202.807,207.612,203.653z"/>
	<path fill="#B3B3B3" d="M199.991,204.83c0,0.118-0.007,0.237-0.017,0.354c-0.176,2.837-2.464,5.08-5.263,5.08
		c-2.801,0-5.089-2.243-5.267-5.08c-0.01-0.116-0.013-0.235-0.013-0.354c0-0.98,0.254-1.908,0.696-2.705
		c0.911-1.631,2.622-2.729,4.579-2.729c1.954,0,3.661,1.097,4.571,2.724C199.735,202.916,199.991,203.844,199.991,204.83z
		 M196.88,204.83c0-1.229-0.971-2.229-2.164-2.229s-2.164,1-2.164,2.229c0,1.229,0.971,2.23,2.164,2.23
		S196.88,206.059,196.88,204.83z"/>
	<path fill="#E6E6E6" d="M194.716,202.602c1.193,0,2.164,1,2.164,2.229c0,1.229-0.971,2.23-2.164,2.23s-2.164-1.002-2.164-2.23
		C192.552,203.603,193.522,202.602,194.716,202.602z"/>
	<path fill="#CCCCCC" d="M188.083,204.83c0,0.118,0.004,0.239,0.011,0.354h-19.055c0.006-0.118,0.012-0.235,0.012-0.354
		c0-0.937-0.188-1.857-0.546-2.711h20.123C188.268,202.972,188.083,203.896,188.083,204.83z"/>
	<path fill="#FFFFFF" d="M164.89,183.138v7.415h-4.13c0,0,0.479-2.017,0.786-3.151l0.117-0.438c0.063-0.229,0.137-0.458,0.225-0.676
		C162.459,184.86,163.549,183.74,164.89,183.138z"/>
	<path fill="#FFFFFF" d="M175.261,182.65v7.902h-8.52v-7.89c0.137-0.012,0.273-0.017,0.416-0.017L175.261,182.65L175.261,182.65z"/>
	<path fill="#FFFFFF" d="M188.848,190.552h-11.735v-7.902h5.036c1.225,0,2.379,0.666,3.021,1.737L188.848,190.552z"/>
	<path fill="#B3B3B3" d="M167.681,205.184c-0.176,2.837-2.467,5.08-5.264,5.08c-2.8,0-5.088-2.243-5.269-5.08
		c-0.009-0.116-0.012-0.235-0.012-0.354c0-0.982,0.256-1.914,0.702-2.711c0.912-1.627,2.619-2.724,4.574-2.724
		s3.659,1.097,4.567,2.724c0.448,0.797,0.703,1.729,0.703,2.711C167.692,204.948,167.689,205.068,167.681,205.184z M164.582,204.83
		c0-1.229-0.975-2.229-2.164-2.229c-1.195,0-2.165,1-2.165,2.229c0,1.229,0.97,2.23,2.165,2.23
		C163.611,207.061,164.582,206.059,164.582,204.83z"/>
	<path fill="#E6E6E6" d="M162.418,202.602c1.189,0,2.164,1,2.164,2.229c0,1.229-0.975,2.23-2.164,2.23
		c-1.195,0-2.165-1.002-2.165-2.23C160.253,203.603,161.222,202.602,162.418,202.602z"/>
	<path fill="#CCCCCC" d="M155.785,204.83c0,0.118,0.004,0.237,0.009,0.354h-3.729c-0.817,0-1.483-0.688-1.483-1.532l0,0
		c0-0.847,0.666-1.532,1.483-1.532h4.263C155.97,202.971,155.785,203.894,155.785,204.83z"/>
	<path fill="#CCCCCC" d="M182.198,194.735h-1.94c-0.409,0-0.74-0.341-0.74-0.763c0-0.421,0.331-0.766,0.74-0.766h1.94
		c0.408,0,0.74,0.345,0.74,0.766C182.938,194.394,182.606,194.735,182.198,194.735z"/>
	<path fill="#CCCCCC" d="M168.845,194.735H166.9c-0.404,0-0.736-0.341-0.736-0.763c0-0.421,0.332-0.766,0.736-0.766h1.945
		c0.408,0,0.74,0.345,0.74,0.766C169.586,194.394,169.254,194.735,168.845,194.735z"/>
	<path fill="#FFFFFF" d="M206.539,198.215h-1.487c-1.499,0-2.716-1.252-2.716-2.796l0,0h3.716
		C206.46,196.338,206.645,197.243,206.539,198.215z"/>
	<polygon fill="#FFFFFF" points="175.261,182.667 175.261,190.552 174.394,190.552 166.742,182.667 	"/>
	<path fill="#FFFFFF" d="M188.848,190.552h-4.063l-7.674-7.902h5.036c1.225,0,2.379,0.666,3.021,1.737L188.848,190.552z"/>
	<path fill="#FFFFFF" d="M164.89,183.138v6.237l-3.002-3.092C162.459,184.86,163.549,183.74,164.89,183.138z"/>
</g>
<g id="dresslater_house_1">
	<rect x="453.57" y="181.964" fill="#F05540" width="5.284" height="8.187"/>
	<rect x="451.552" y="177.787" fill="#F3705A" width="9.315" height="4.437"/>
	<path fill="#FFD15C" d="M423.114,198.158v18.836h37.661v-18.836c-7.396-6.563-11.528-10.228-18.83-16.707l0,0
		C434.643,188.015,430.512,191.68,423.114,198.158z"/>
	<path fill="#F7B64C" d="M460.867,198.158c-7.396-6.563-11.525-10.228-18.831-16.707c-3.742,3.239-6.629,5.796-9.511,8.354
		c-2.882,2.557-5.765,5.11-9.416,8.353v3.835c7.398-6.563,11.529-10.228,18.831-16.706c7.397,6.563,11.529,10.229,18.83,16.706
		v0.512l0,0v-4.347H460.867L460.867,198.158z"/>
	<path fill="#415A6B" d="M438.578,216.995h-11.337v-9.887c0-2.813,2.598-5.029,5.668-5.029l0,0c3.175,0,5.669,2.302,5.669,5.029
		V216.995z"/>
	<rect x="441.945" y="202.079" fill="#344A5E" width="14.796" height="11.506"/>
	<g>
		<rect x="443.482" y="203.443" fill="#8AD7F8" width="5.093" height="8.779"/>
		<rect x="450.112" y="203.443" fill="#8AD7F8" width="5.091" height="8.779"/>
	</g>
	<path fill="#F3705A" d="M464.326,194.664L444.25,176.85c-1.152-1.022-3.174-1.022-4.323,0l-19.983,17.813
		c-1.152,1.022-1.152,2.813,0,3.835c1.153,1.022,3.17,1.022,4.323,0l17.871-15.854l17.869,15.854c1.148,1.022,3.17,1.022,4.319,0
		C465.483,197.391,465.483,195.686,464.326,194.664z"/>
</g>
<g id="dresslater_house_2">
	<rect x="420.808" y="195.506" fill="#ACABB1" width="8.535" height="24.121"/>
	<g>
		<rect x="420.808" y="217.771" fill="#57565C" width="8.535" height="1.854"/>
		<rect x="427.636" y="195.506" fill="#57565C" width="1.707" height="24.121"/>
	</g>
	<rect x="424.222" y="206.638" fill="#D8D7DA" width="5.121" height="3.711"/>
	<rect x="427.636" y="206.638" fill="#D8D7DA" width="1.707" height="3.711"/>
	<rect x="424.222" y="199.217" fill="#D8D7DA" width="5.121" height="3.715"/>
	<rect x="427.636" y="199.217" fill="#D8D7DA" width="1.707" height="3.715"/>
	<rect x="456.656" y="195.506" fill="#ACABB1" width="8.536" height="24.121"/>
	<g>
		<rect x="456.656" y="217.771" fill="#57565C" width="8.536" height="1.854"/>
		<rect x="456.656" y="195.506" fill="#57565C" width="1.707" height="24.121"/>
	</g>
	<rect x="456.656" y="199.217" fill="#FFFFFF" width="5.122" height="3.715"/>
	<rect x="456.656" y="199.217" fill="#FFFFFF" width="1.707" height="3.715"/>
	<rect x="456.656" y="206.638" fill="#FFFFFF" width="5.122" height="3.711"/>
	<rect x="456.656" y="206.638" fill="#FFFFFF" width="1.707" height="3.711"/>
	<rect x="429.343" y="179.735" fill="#D8D7DA" width="27.313" height="39.892"/>
	<g>
		<rect x="429.343" y="179.735" fill="#ACABB1" width="1.707" height="39.892"/>
		<rect x="429.343" y="217.771" fill="#ACABB1" width="27.313" height="1.854"/>
	</g>
	<rect x="429.343" y="168.603" fill="#D8D7DA" width="27.313" height="7.42"/>
	<g>
		<rect x="429.343" y="174.168" fill="#ACABB1" width="27.313" height="1.855"/>
		<rect x="429.343" y="168.603" fill="#ACABB1" width="1.707" height="7.42"/>
	</g>
	<rect x="433.611" y="183.446" fill="#FFFFFF" width="3.414" height="3.711"/>
	<rect x="448.975" y="183.446" fill="#FFFFFF" width="3.414" height="3.711"/>
	<rect x="440.897" y="183.169" fill="#FF0000" width="4.161" height="4.522"/>
	<rect x="433.611" y="191.795" fill="#FFFFFF" width="3.414" height="3.711"/>
	<rect x="448.975" y="191.795" fill="#FFFFFF" width="3.414" height="3.711"/>
	<rect x="441.293" y="191.795" fill="#FFFFFF" width="3.41" height="3.711"/>
	<rect x="433.611" y="200.145" fill="#FFFFFF" width="3.414" height="3.711"/>
	<rect x="448.975" y="200.145" fill="#FFFFFF" width="3.414" height="3.711"/>
	<rect x="441.293" y="200.145" fill="#FFFFFF" width="3.41" height="3.711"/>
	<rect x="438.733" y="208.494" fill="#FFFFFF" width="8.535" height="11.133"/>
	<rect x="438.733" y="208.494" fill="#D8D7DA" width="8.535" height="2.783"/>
	<path d="M437.772,182.635h-5.015v5.446h5.015V182.635z M436.171,186.344h-1.813v-1.975h1.813V186.344z"/>
	<path d="M453.136,182.635h-5.019v5.446h5.019V182.635z M451.531,186.344h-1.813v-1.975h1.813V186.344z"/>
	<path d="M445.45,182.635h-5.015v5.446h5.015V182.635z M444.703,187.156h-3.41v-3.711h3.41V187.156z"/>
	<path d="M437.772,190.984h-5.015v5.451h5.015V190.984z M436.171,194.695h-1.813v-1.971h1.813V194.695z"/>
	<path d="M453.136,190.984h-5.019v5.451h5.019V190.984z M451.531,194.695h-1.813v-1.971h1.813V194.695z"/>
	<path d="M445.45,190.984h-5.015v5.451h5.015V190.984z M443.854,194.695h-1.814v-1.971h1.814V194.695z"/>
	<path d="M437.772,199.333h-5.015v5.45h5.015V199.333z M436.171,203.044h-1.813v-1.972h1.813V203.044z"/>
	<path d="M453.136,199.333h-5.019v5.45h5.019V199.333z M451.531,203.044h-1.813v-1.972h1.813V203.044z"/>
	<path d="M445.45,199.333h-5.015v5.45h5.015V199.333z M443.854,203.044h-1.814v-1.972h1.814V203.044z"/>
	<path d="M465.94,218.815v-24.12h-8.536v-15.771h-3.414v-1.972h3.414v-9.161H428.49v9.161h3.414v1.972h-3.414v15.771h-8.535v24.12
		h-4.268v1.74h54.627v-1.74H465.94z M428.49,209.538h-3.521v-1.972h3.521V209.538z M428.49,202.116h-3.521v-1.971h3.521V202.116z
		 M428.49,198.405h-5.121v5.451h5.121v1.971h-5.121v5.45h5.121v7.538h-6.935v-22.38h6.935V198.405z M457.404,200.145h3.521v1.971
		h-3.521V200.145z M457.404,207.566h3.521v1.972h-3.521V207.566z M430.09,175.213v-5.682h25.713v5.682H430.09z M452.389,176.952
		v1.972h-18.885v-1.972H452.389z M442.147,218.815h-2.668v-6.61h2.668V218.815z M446.41,218.815h-2.667v-6.61h2.667V218.815z
		 M446.41,210.466h-6.936v-1.044h6.936V210.466z M455.803,218.815h-7.788v-11.132h-10.136v11.132h-7.789v-38.152h25.713V218.815
		L455.803,218.815z M464.339,218.815h-6.938v-7.538h5.121v-5.45h-5.121v-1.971h5.121v-5.451h-5.121v-1.971h6.938V218.815z"/>
	<g>
		<rect x="437.025" y="171.444" fill="#FFFFFF" width="1.708" height="1.74"/>
		<rect x="442.147" y="171.444" fill="#FFFFFF" width="1.707" height="1.74"/>
		<rect x="447.268" y="171.444" fill="#FFFFFF" width="1.707" height="1.74"/>
	</g>
</g>
<g id="job">
	<rect id="attr_job_1" x="75.578" y="396.275" fill="#80E880" width="7.688" height="8.612"/>
	<rect id="attr_job_5" x="209.179" y="396.256" fill="#80E880" width="7.689" height="8.612"/>
	<rect id="attr_job_7" x="209.179" y="409.256" fill="#80E880" width="7.689" height="8.612"/>
	<rect id="attr_job_9" x="209.179" y="423.29" fill="#80E880" width="7.689" height="8.612"/>
	<rect id="attr_job_6" x="75.578" y="409.256" fill="#80E880" width="7.688" height="8.612"/>
	<rect id="attr_job_3" x="75.74" y="423.29" fill="#80E880" width="7.688" height="8.612"/>
	<rect id="attr_job_8" x="156.916" y="396.256" fill="#80E880" width="7.688" height="8.612"/>
	<rect id="attr_job_4" x="156.965" y="409.256" fill="#80E880" width="7.688" height="8.612"/>
	<rect id="attr_job_2" x="156.916" y="423.29" fill="#80E880" width="7.688" height="8.612"/>
	<text transform="matrix(1 0 0 1 217.9958 431.447)" fill="#80E880" font-family="'ArialMT'" font-size="8">others</text>
	<text transform="matrix(1 0 0 1 217.9958 416.6296)" fill="#80E880" font-family="'ArialMT'" font-size="8">student</text>
	<text transform="matrix(1 0 0 1 85.9753 416.5427)" fill="#80E880" font-family="'ArialMT'" font-size="8">businessman</text>
	<text transform="matrix(1 0 0 1 165.8899 402.5808)" fill="#80E880" font-family="'ArialMT'" font-size="8">retirement</text>
	<text transform="matrix(1 0 0 1 218.9958 402.5808)" fill="#80E880" font-family="'ArialMT'" font-size="8">worker</text>
	<text transform="matrix(1 0 0 1 165.8079 416.5808)" fill="#80E880" font-family="'ArialMT'" font-size="8">servant</text>
	<text transform="matrix(1 0 0 1 85.9753 430.447)" fill="#80E880" font-family="'ArialMT'" font-size="8">government offical</text>
	<text transform="matrix(1 0 0 1 166.0002 430.447)" fill="#80E880" font-family="'ArialMT'" font-size="8">technician</text>
	<text transform="matrix(1 0 0 1 86.6233 402.5808)" fill="#80E880" font-family="'ArialMT'" font-size="8">management</text>
</g>
<g id="dresslater_job_1">
	<path d="M179.578,90.817c2.79,0,5.06-2.012,5.06-4.483c0-2.471-2.27-4.48-5.06-4.48c-2.791,0-5.063,2.012-5.063,4.48
		C174.516,88.805,176.787,90.817,179.578,90.817z"/>
	<path d="M171.598,104.57h15.956c1.039,0,1.88-0.747,1.88-1.667v-6.164c0-1.706-1.237-3.219-3.064-3.75l-0.011-0.003l-2.677-0.393
		c-0.228-0.063-0.471,0.045-0.553,0.241l-3.037,7.386c-0.176,0.425-0.855,0.425-1.03,0l-3.038-7.386
		c-0.063-0.158-0.234-0.262-0.42-0.262c-0.043,0-2.809,0.41-2.809,0.41c-1.844,0.545-3.078,2.06-3.078,3.771v6.146
		C169.717,103.823,170.56,104.57,171.598,104.57L171.598,104.57z"/>
	<path d="M202.652,115.944c-0.009-0.002-0.019-0.006-0.027-0.008l-1.448-0.396c-0.438-0.118-0.909-0.021-1.247,0.246l-3.122,2.5
		l-3.123-2.5c-0.337-0.271-0.811-0.365-1.246-0.246l-1.449,0.396c-0.01,0.002-0.021,0.006-0.027,0.008
		c-2.188,0.646-3.656,2.453-3.656,4.494v7.107c0,0.636,0.579,1.146,1.293,1.146h16.42c0.714,0,1.293-0.513,1.293-1.146v-7.107
		C206.308,118.397,204.838,116.59,202.652,115.944L202.652,115.944z"/>
	<path d="M196.805,114.752c2.979,0,5.398-2.146,5.398-4.779c0-2.64-2.425-4.782-5.398-4.782c-2.977,0-5.396,2.145-5.396,4.782
		C191.407,112.607,193.828,114.752,196.805,114.752L196.805,114.752z"/>
	<path d="M168.071,115.944c-0.01-0.002-0.02-0.006-0.026-0.008l-1.449-0.396c-0.437-0.119-0.909-0.021-1.246,0.246l-3.124,2.5
		l-3.122-2.5c-0.337-0.271-0.812-0.365-1.246-0.246c0,0-1.468,0.399-1.479,0.402c-2.188,0.646-3.656,2.453-3.656,4.494v7.107
		c0,0.636,0.579,1.146,1.293,1.146h16.42c0.715,0,1.293-0.513,1.293-1.146v-7.107C171.726,118.397,170.258,116.59,168.071,115.944z"
		/>
	<path d="M156.826,109.97c0,2.637,2.421,4.779,5.396,4.779c2.979,0,5.398-2.145,5.398-4.779c0-2.64-2.421-4.782-5.398-4.782
		C159.247,105.188,156.826,107.333,156.826,109.97z"/>
	<path d="M198.28,97.359c-0.439-0.118-0.938-0.038-1.313,0.252c-0.575,0.447-0.63,1.224-0.126,1.732l1.895,1.907
		c0.265,0.268,0.645,0.417,1.04,0.417c0.398,0,0.777-0.149,1.041-0.417l1.896-1.907c0.504-0.512,0.449-1.285-0.126-1.732
		c-0.432-0.333-1.024-0.39-1.509-0.188c-0.282-2.681-1.464-5.193-3.415-7.164c-0.507-0.511-1.382-0.561-1.955-0.111
		c-0.574,0.447-0.631,1.223-0.126,1.729C197.072,93.386,198.001,95.302,198.28,97.359z"/>
	<path d="M158.336,101.253c0.264,0.268,0.643,0.417,1.042,0.417c0.396,0,0.774-0.149,1.04-0.417l1.895-1.907
		c0.504-0.512,0.448-1.285-0.126-1.732c-0.372-0.29-0.87-0.37-1.313-0.252c0.278-2.057,1.208-3.973,2.703-5.479
		c0.504-0.509,0.445-1.281-0.126-1.729c-0.574-0.447-1.451-0.397-1.955,0.111c-1.954,1.969-3.136,4.482-3.415,7.165
		c-0.485-0.203-1.081-0.146-1.512,0.187c-0.573,0.447-0.632,1.224-0.126,1.732L158.336,101.253z"/>
	<path d="M180.619,92.664c-0.117-0.109-0.288-0.169-0.461-0.169h-1.288c-0.172,0-0.346,0.06-0.46,0.169
		c-0.185,0.175-0.207,0.427-0.078,0.625l0.688,0.919l-0.318,2.409l0.634,1.497c0.061,0.151,0.302,0.151,0.36,0l0.639-1.497
		l-0.323-2.409l0.688-0.919C180.826,93.092,180.8,92.839,180.619,92.664L180.619,92.664z"/>
</g>
<g id="dresslater_job_2">
	<g>
		<g>
			<g>
				<path fill="#010002" d="M156.022,124.653c-1.786,1.698-1.786,4.448,0,6.146c0.896,0.852,2.063,1.272,3.234,1.272
					s2.342-0.423,3.231-1.272l15.017-14.271l-6.469-6.146L156.022,124.653z"/>
				<polygon fill="#010002" points="193.544,98.205 200.083,94.991 203.507,88.701 200.315,85.667 193.699,88.924 190.313,95.133 
					182.36,102.701 185.585,105.773 				"/>
				<path fill="#010002" d="M194.977,114.7l-0.616-0.059c-1.111,0-2.173,0.218-3.158,0.563l-18.771-17.843
					c0.366-0.939,0.595-1.944,0.595-3.005l-0.062-0.585c-0.322-4.523-4.243-8.107-9.084-8.107c-1.408,0-2.729,0.327-3.92,0.869
					l6.075,5.775c0.317,0.304,0.54,0.664,0.686,1.043c0.399,1.022,0.184,2.225-0.686,3.054c-0.597,0.565-1.375,0.849-2.155,0.849
					c-0.359,0-0.716-0.072-1.061-0.194c-0.396-0.146-0.774-0.351-1.098-0.655l-6.075-5.772c-0.567,1.136-0.914,2.39-0.914,3.729
					c0,4.602,3.771,8.327,8.529,8.635l0.615,0.061c1.116,0,2.174-0.22,3.161-0.563l18.767,17.839
					c-0.358,0.939-0.589,1.944-0.589,3.005l0.063,0.585c0.315,4.525,4.239,8.107,9.08,8.107c1.408,0,2.731-0.322,3.923-0.869
					l-6.075-5.775c-0.317-0.301-0.54-0.66-0.692-1.039c-0.396-1.024-0.183-2.229,0.692-3.058c0.589-0.563,1.375-0.849,2.152-0.849
					c0.359,0,0.716,0.069,1.063,0.194c0.397,0.145,0.78,0.348,1.095,0.652l6.075,5.774c0.573-1.138,0.915-2.39,0.915-3.729
					C203.507,118.734,199.736,115.007,194.977,114.7z"/>
			</g>
		</g>
	</g>
</g>
<g id="dresslater_job_3">
	<g>
		<g>
			<path d="M177.662,105.072l-7.476,4.9v12.442h2.989v-10.292c0-0.812,0.668-1.47,1.495-1.47c0.825,0,1.494,0.658,1.494,1.47v10.292
				h2.986v-10.292c0-0.812,0.67-1.47,1.494-1.47c0.826,0,1.495,0.658,1.495,1.47v10.292h2.989v-12.442L177.662,105.072z"/>
		</g>
	</g>
	<g>
		<g>
			<path d="M153.649,125.357c-0.822,0-1.494,0.658-1.494,1.47v3.039c0,0.813,0.672,1.47,1.494,1.47h6.274l3.986-5.979H153.649z"/>
		</g>
	</g>
	<g>
		<g>
			<polygon points="187.821,125.357 167.501,125.357 163.516,131.336 191.808,131.336 			"/>
		</g>
	</g>
	<g>
		<g>
			<path d="M201.675,125.357h-10.261l3.983,5.979h6.275c0.825,0,1.494-0.655,1.494-1.47v-3.039
				C203.169,126.015,202.5,125.357,201.675,125.357z"/>
		</g>
	</g>
	<g>
		<g>
			<rect x="191.113" y="116.536" width="9.067" height="5.881"/>
		</g>
	</g>
	<g>
		<g>
			<rect x="155.144" y="116.536" width="9.067" height="5.881"/>
		</g>
	</g>
	<g>
		<g>
			<path d="M200.18,107.715h-6.078v-4.408c0-0.813-0.669-1.473-1.495-1.473h-4.59c-0.656-4.498-4.29-8.036-8.861-8.686v-3.077h7.476
				c0.826,0,1.495-0.657,1.495-1.47v-5.979c0-0.813-0.669-1.47-1.495-1.47h-8.967c-0.826,0-1.495,0.658-1.495,1.47
				c0,1.048,0,9.96,0,10.525c-4.571,0.647-8.205,4.188-8.861,8.686h-4.59c-0.826,0-1.495,0.658-1.495,1.473v4.408h-6.078
				c-1.648,0-2.988,1.316-2.988,2.94s1.34,2.94,2.988,2.94h12.059v-4.41c0-0.491,0.25-0.951,0.666-1.226l8.967-5.881
				c0.502-0.331,1.157-0.331,1.659,0l8.967,5.881c0.417,0.272,0.666,0.732,0.666,1.226v4.41h12.056c1.651,0,2.989-1.316,2.989-2.94
				C203.169,109.031,201.83,107.715,200.18,107.715z"/>
		</g>
	</g>
</g>
<g id="dresslater_job_4">
	<g>
		<path d="M174.052,114.354L174.052,114.354v-1.777c0,0,5.321,0.174,7.846-2.55c0,0-3.672-1.096-3.017-8.169
			c0.656-7.063-0.819-13.271-6.206-12.751c0,0-2.328-2.966-6.972-1.096c-1.598,0.634-5.867,2.261-5.649,12.047
			c0.219,9.785-3.3,9.843-3.3,9.843s1.813,2.781,7.955,2.723v1.823l4.687,14.413l4.667-14.378L174.052,114.354z"/>
		<path d="M185.657,123.585c-0.309-1.774-1.391-3.3-2.931-4.097l-5.879-3.069c-0.339-0.173-0.667-0.369-0.995-0.563l1.858,5.781
			l-2.59-0.208l-5.729,7.432l-5.715-7.432l-2.59,0.208l1.891-5.781l-1.181,0.634l-5.737,2.989c-1.527,0.796-2.622,2.317-2.928,4.097
			l-0.938,5.481c-0.063,0.4,0.229,0.771,0.611,0.771h16.369h0.438h16.367c0.396,0,0.68-0.37,0.611-0.771L185.657,123.585z"/>
		<path d="M202.266,85.309c-4.535-4.789-11.878-4.789-16.413,0c-4.356,4.604-4.521,11.979-0.491,16.79l0.12,0.104
			c-0.438,1.003-1.188,2.238-2.394,2.853c-0.396,0.208-0.305,0.828,0.131,0.897c1.312,0.22,3.191-0.021,4.939-1.419l0.021,0.023
			c4.447,2.758,10.272,2.123,14.085-1.904C206.802,97.864,206.802,90.098,202.266,85.309z M194.552,86.406
			c1.039,0,1.88,0.911,1.869,2.019c-0.011,1.108-0.854,2.011-1.88,1.997c-1.063-0.012-1.901-0.923-1.901-2.028
			C192.651,87.294,193.503,86.406,194.552,86.406z M197.24,99.885c-0.047,0.173-0.145,0.346-0.265,0.473
			c-0.688,0.738-1.508,1.177-2.502,1.188c-0.459,0.015-0.929-0.012-1.376-0.081c-0.754-0.112-1.716-1.104-1.585-2.155
			c0.098-0.718,0.197-1.442,0.317-2.158c0.193-1.246,0.415-2.493,0.622-3.75c0.011-0.081,0.021-0.162,0.021-0.242
			c0-0.52-0.153-0.704-0.644-0.772c-0.208-0.034-0.429-0.048-0.624-0.129c-0.24-0.092-0.352-0.285-0.328-0.493
			c0.021-0.222,0.151-0.357,0.426-0.415c0.144-0.035,0.284-0.035,0.426-0.035c0.579,0,1.159,0,1.738,0c0.612,0,1.224,0,1.847,0
			c0.438,0,0.71,0.219,0.724,0.689c0.012,0.396-0.057,0.785-0.12,1.166c-0.24,1.434-0.491,2.853-0.743,4.281
			c-0.077,0.473-0.175,0.947-0.23,1.419c-0.021,0.23,0,0.474,0.058,0.693c0.077,0.3,0.284,0.461,0.565,0.426
			c0.24-0.023,0.481-0.115,0.699-0.208c0.188-0.069,0.352-0.208,0.535-0.289C197.087,99.376,197.305,99.583,197.24,99.885z"/>
	</g>
</g>
<g id="dresslater_job_6">
	<g>
		<g>
			<path d="M200.549,120.166c0.408,0,0.739-0.302,0.739-0.675v-23.78c0-0.179-0.078-0.351-0.219-0.478l-7.882-7.206
				c-0.139-0.127-0.326-0.198-0.521-0.198h-16.604v-0.135c0-1.118-0.995-2.027-2.217-2.027H156.31c-1.222,0-2.217,0.909-2.217,2.027
				v21.798c0,1.118,0.995,2.026,2.217,2.026h5.666v16.619c0,0.374,0.331,0.676,0.739,0.676h37.834c0.408,0,0.739-0.302,0.739-0.676
				v-5.044c0-0.373-0.331-0.679-0.739-0.679c-0.409,0-0.739,0.306-0.739,0.679v4.366h-36.354v-15.941h10.395
				c1.225,0,2.217-0.909,2.217-2.026v-11.62c0-0.374-0.331-0.676-0.736-0.676c-0.409,0-0.739,0.302-0.739,0.676v11.62
				c0,0.373-0.332,0.676-0.739,0.676H156.31c-0.407,0-0.739-0.303-0.739-0.676V87.694c0-0.373,0.332-0.676,0.739-0.676h17.538
				c0.408,0,0.739,0.303,0.739,0.676v6.575c0,0.373,0.33,0.676,0.739,0.676c0.405,0,0.736-0.303,0.736-0.676V89.18h15.865
				c-0.001,0.015-0.002,0.027-0.002,0.045v6.482c0,0.373,0.331,0.679,0.739,0.679h7.094c0.016,0,0.033-0.001,0.049-0.002v23.104
				C199.809,119.865,200.14,120.166,200.549,120.166z M193.406,95.035v-4.896l5.359,4.896H193.406z"/>
		</g>
	</g>
	<g>
		<g>
			<path d="M172.37,116.654h-4.929c-0.405,0-0.736,0.302-0.736,0.675c0,0.374,0.331,0.676,0.736,0.676h4.929
				c0.405,0,0.736-0.302,0.736-0.676C173.109,116.956,172.778,116.654,172.37,116.654z"/>
		</g>
	</g>
	<g>
		<g>
			<path d="M172.37,120.257h-4.929c-0.405,0-0.736,0.305-0.736,0.678c0,0.374,0.331,0.676,0.736,0.676h4.929
				c0.405,0,0.736-0.302,0.736-0.676C173.109,120.559,172.778,120.257,172.37,120.257z"/>
		</g>
	</g>
	<g>
		<g>
			<path d="M187.149,106.565c-3.021,0-5.835,1.098-7.927,3.091c-0.283,0.269-0.271,0.696,0.021,0.955s0.762,0.25,1.045-0.021
				c1.81-1.725,4.247-2.674,6.858-2.674c5.243,0,9.508,3.899,9.508,8.692s-4.265,8.69-9.508,8.69c-5.242,0-9.508-3.897-9.508-8.69
				c0-1.415,0.36-2.765,1.071-4.011c0.188-0.331,0.048-0.739-0.313-0.912c-0.359-0.171-0.808-0.044-0.997,0.287
				c-0.81,1.421-1.235,3.021-1.235,4.636c0,5.538,4.928,10.044,10.982,10.044c6.06,0,10.986-4.506,10.986-10.044
				S193.206,106.565,187.149,106.565z"/>
		</g>
	</g>
	<g>
		<g>
			<path d="M188.835,116.023l-1.146-0.031v-3.752h2.611c0.408,0,0.739-0.303,0.739-0.676s-0.331-0.676-0.739-0.676h-2.611v-0.769
				c0-0.373-0.331-0.676-0.736-0.676c-0.408,0-0.739,0.303-0.739,0.676v0.769h-0.739c-1.222,0-2.217,0.906-2.217,2.023v2.343
				c0,1.113,0.988,2.021,2.206,2.026l0.75,0.021v3.673h-2.217c-0.408,0-0.739,0.303-0.739,0.676s0.331,0.676,0.739,0.676h2.217
				v0.768c0,0.373,0.331,0.676,0.739,0.676c0.405,0,0.736-0.306,0.736-0.676v-0.768h1.133c1.225,0,2.22-0.91,2.22-2.024v-2.255
				C191.041,116.936,190.052,116.029,188.835,116.023z M186.213,115.952l-0.717-0.019c-0.01,0-0.018,0-0.022,0
				c-0.407,0-0.738-0.306-0.738-0.678v-2.342c0-0.373,0.331-0.676,0.738-0.676h0.739V115.952L186.213,115.952z M189.563,120.302
				c0,0.37-0.332,0.675-0.736,0.675h-1.135v-3.633l1.111,0.027c0.007,0,0.015,0,0.021,0c0.405,0,0.736,0.306,0.736,0.675
				L189.563,120.302L189.563,120.302z"/>
		</g>
	</g>
	<g>
		<g>
			<path d="M172.961,87.829h-15.767c-0.405,0-0.736,0.303-0.736,0.676v3.604c0,0.373,0.331,0.676,0.736,0.676h15.767
				c0.409,0,0.739-0.303,0.739-0.676v-3.604C173.7,88.132,173.369,87.829,172.961,87.829z M172.222,91.432h-14.286V89.18h14.286
				V91.432L172.222,91.432z"/>
		</g>
	</g>
	<g>
		<g>
			<path d="M160.349,93.594h-3.153c-0.405,0-0.736,0.303-0.736,0.676v2.883c0,0.373,0.331,0.675,0.736,0.675h3.153
				c0.409,0,0.739-0.302,0.739-0.675V94.27C161.088,93.896,160.758,93.594,160.349,93.594z M159.611,96.476h-1.675v-1.531h1.675
				V96.476z"/>
		</g>
	</g>
	<g>
		<g>
			<path d="M166.656,93.594h-3.15c-0.408,0-0.739,0.303-0.739,0.676v2.883c0,0.373,0.331,0.675,0.739,0.675h3.15
				c0.408,0,0.739-0.302,0.739-0.675V94.27C167.394,93.896,167.063,93.594,166.656,93.594z M165.916,96.476h-1.675v-1.531h1.675
				V96.476z"/>
		</g>
	</g>
	<g>
		<g>
			<path d="M172.961,93.594h-3.153c-0.408,0-0.738,0.303-0.738,0.676v2.883c0,0.373,0.331,0.675,0.738,0.675h3.153
				c0.409,0,0.739-0.302,0.739-0.675V94.27C173.7,93.896,173.369,93.594,172.961,93.594z M172.222,96.476h-1.675v-1.531h1.675
				V96.476z"/>
		</g>
	</g>
	<g>
		<g>
			<path d="M160.349,99.359h-3.153c-0.405,0-0.736,0.303-0.736,0.676v2.882c0,0.373,0.331,0.679,0.736,0.679h3.153
				c0.409,0,0.739-0.305,0.739-0.679v-2.882C161.088,99.661,160.758,99.359,160.349,99.359z M159.611,102.241h-1.675v-1.531h1.675
				V102.241z"/>
		</g>
	</g>
	<g>
		<g>
			<path d="M166.656,99.359h-3.15c-0.408,0-0.739,0.303-0.739,0.676v2.882c0,0.373,0.331,0.679,0.739,0.679h3.15
				c0.408,0,0.739-0.305,0.739-0.679v-2.882C167.394,99.661,167.063,99.359,166.656,99.359z M165.916,102.241h-1.675v-1.531h1.675
				V102.241z"/>
		</g>
	</g>
	<g>
		<g>
			<path d="M160.349,105.123h-3.153c-0.405,0-0.736,0.306-0.736,0.676v2.886c0,0.373,0.331,0.676,0.736,0.676h3.153
				c0.409,0,0.739-0.303,0.739-0.676v-2.886C161.088,105.427,160.758,105.123,160.349,105.123z M159.611,108.006h-1.675v-1.528
				h1.675V108.006z"/>
		</g>
	</g>
	<g>
		<g>
			<path d="M166.656,105.123h-3.15c-0.408,0-0.739,0.306-0.739,0.676v2.886c0,0.373,0.331,0.676,0.739,0.676h3.15
				c0.408,0,0.739-0.303,0.739-0.676v-2.886C167.394,105.427,167.063,105.123,166.656,105.123z M165.916,108.006h-1.675v-1.528
				h1.675V108.006z"/>
		</g>
	</g>
	<g>
		<g>
			<path d="M172.961,99.359h-3.153c-0.408,0-0.738,0.303-0.738,0.676v8.647c0,0.373,0.331,0.676,0.738,0.676h3.153
				c0.409,0,0.739-0.303,0.739-0.676v-8.647C173.7,99.661,173.369,99.359,172.961,99.359z M172.222,108.006h-1.675v-7.296h1.675
				V108.006z"/>
		</g>
	</g>
	<g>
		<g>
			<path d="M197.904,101.597l-4.022-3.494c-0.295-0.257-0.763-0.246-1.044,0.022c-0.281,0.271-0.271,0.698,0.024,0.955l3.478,3.021
				l-0.613,0.561L185.1,92.949c-0.103-0.095-0.231-0.159-0.377-0.185l-2.738-0.5l-1.315-1.329c-0.275-0.276-0.742-0.297-1.044-0.047
				c-0.305,0.25-0.325,0.678-0.053,0.951c0,0,1.521,1.521,1.569,1.554l0.482,2.205c0.026,0.13,0.099,0.25,0.202,0.345l11.771,10.764
				c0.433,0.396,1,0.593,1.568,0.593c0.565,0,1.135-0.195,1.564-0.593l0,0l0.143-0.127c0.861-0.79,0.861-2.076,0-2.866l-0.104-0.096
				l1.149-1.051C198.207,102.302,198.201,101.856,197.904,101.597z M183.028,95.131l-0.295-1.354l1.48,0.271l7.122,6.514
				l-1.187,1.083L183.028,95.131z M195.828,105.623l-0.142,0.127c-0.288,0.266-0.757,0.266-1.045,0l-3.449-3.15l1.187-1.083
				l3.449,3.15C196.116,104.931,196.116,105.359,195.828,105.623z"/>
		</g>
	</g>
</g>
<g id="dresslater_job_7">
	<path d="M151.838,126.33c0,3.482,2.955,6.316,6.587,6.316h1.463h40.192h2.928h3.05v-2.81h-3.05v-7.018h3.05v-1.229h1.463h2.196
		v-2.807h-2.196v-7.017h2.196v-2.81h-2.196h-0.183v-0.935v-1.404v-0.06l-3.614-6.491h3.798v-3.774L197.969,85.1h-33.701
		l-8.688,13.131c-1.486,1.159-2.458,2.905-2.458,4.881c0,3.461,2.92,6.275,6.521,6.31c-2.423,0.936-4.144,3.201-4.144,5.854
		c0,1.927,0.923,3.634,2.347,4.793C154.488,120.358,151.838,123.038,151.838,126.33z M156.046,103.115
		c0-1.309,0.759-2.438,1.87-3.042h43.628v6.552h-41.838C157.688,106.623,156.046,105.049,156.046,103.115z M162.084,111.769h1.463
		h41.045v7.017h-41.045h-1.463c-2.021,0-3.659-1.574-3.659-3.509C158.425,113.344,160.067,111.769,162.084,111.769z
		 M158.425,122.822h1.463h40.192v7.018h-40.192h-1.463c-2.018,0-3.66-1.57-3.66-3.509
		C154.765,124.395,156.407,122.822,158.425,122.822z"/>
</g>
<g id="dresslater_job_8">
	<g>
		<path d="M207.167,121.989c-1.717-1.717-4.695-1.88-6.642-0.364c-0.615,0.482-1.255,0.938-1.902,1.365l-4.094-4.904
			c1.848-0.734,3.137-2.377,3.137-4.277c0-2.588-2.387-4.694-5.317-4.694h-5.131v-4.706v-0.059h4.459
			c0.733,0,1.423,0.247,1.945,0.668c0.289,0.229,0.524,0.518,0.69,0.845c0.289,0.577,0.933,0.919,1.604,0.919
			c0.234,0,0.479-0.043,0.709-0.133c0.884-0.35,1.283-1.261,0.89-2.041c-1.021-2.037-3.313-3.354-5.838-3.354h-20.582l-3.629-11.624
			c-0.63-2.02-2.114-3.699-4.177-4.733c-2.063-1.035-4.459-1.297-6.747-0.741c-0.936,0.227-1.48,1.078-1.226,1.902l8.328,26.678
			c0.613,1.965,2.057,3.586,3.934,4.604l-4.72,5.652c-0.647-0.429-1.284-0.883-1.902-1.365c-0.942-0.732-2.151-1.102-3.405-1.033
			c-1.254,0.069-2.402,0.565-3.234,1.396c-0.831,0.832-1.247,1.9-1.169,3.007c0.078,1.107,0.643,2.122,1.581,2.856
			c7.188,5.604,16.425,8.688,26.017,8.688c9.588,0,18.824-3.086,26.013-8.688c0.942-0.734,1.503-1.749,1.582-2.856
			C208.414,123.888,207.999,122.82,207.167,121.989z M183.715,104.346v4.765h-10.169l-1.487-4.765H183.715z M165.788,124.694
			l5.229-6.267c0.396,0.048,0.797,0.071,1.204,0.071h18.306l5.167,6.193C186.472,129.396,175.011,129.395,165.788,124.694z"/>
	</g>
</g>
<g id="dresslater_job_5">
	<g>
		<path fill="#030104" d="M185.913,97.611h18.224c0-6.774-3.865-11.839-9.972-13.573l-2.193,8.35l0.538-10.554
			c-3.03-1.343-5.69,0-5.69,0l0.538,10.554l-2.188-8.35c-1.85,0.524-3.486,1.36-4.883,2.453
			C183.445,89.222,185.443,93.088,185.913,97.611z"/>
		<path fill="#030104" d="M206.968,98.824h-21.33v0.97l3.23,0.058l-0.006,5.212h-3.618c-0.08,0.977-0.228,3.852-0.376,4.604
			c0.477,1.563,0.41,3.516-0.194,5.826c-0.202,1.106-0.595,2.131-1.159,3.005c-0.372,1.607-0.978,3.132-1.75,4.561
			c2.17,2.235,4.911,3.673,7.628,3.673c5.649,0,11.271-5.349,12.438-11.747c0.404-0.47,0.844-1.213,1.019-2.333
			c0.423-1.57,0.748-3.636-0.037-4.784c0.259-1.018,0.517-2.368,0.591-3.869c0.104-0.247,0.11-0.521,0.02-0.785
			c0-0.144,0-0.274-0.003-0.377l0.01-0.161c0.004-0.076,0-0.159-0.014-0.241l-0.146-0.813h3.704v-2.793h-0.006V98.824z"/>
		<path fill="#030104" d="M173.993,86.135l-2.193,8.348l0.537-10.554c-3.032-1.343-5.689,0-5.689,0l0.538,10.554l-2.19-8.348
			c-6.104,1.729-9.972,6.795-9.972,13.567h28.938C183.962,92.934,180.096,87.869,173.993,86.135z"/>
		<path fill="#030104" d="M182.635,109.962c0.259-1.018,0.514-2.375,0.588-3.866c0.104-0.247,0.114-0.524,0.021-0.785
			c0-0.147,0-0.274-0.007-0.377l0.013-0.164c0.004-0.079,0-0.161-0.021-0.244l-0.138-0.812h3.704v-2.79h-34.258v2.79h3.755
			l-0.01,0.935c0,0.003,0,0.329,0,0.521c-0.229,0.719-0.165,1.171,0.45,4.507c-0.064,0.071-0.135,0.146-0.188,0.229
			c-0.894,1.207-0.45,3.481-0.091,4.773c0.185,1.146,0.608,1.902,1.015,2.378c1.024,6.306,6.441,11.764,11.755,11.764
			c5.649,0,11.272-5.346,12.438-11.744c0.403-0.476,0.836-1.213,1.018-2.337C183.092,113.177,183.418,111.113,182.635,109.962z"/>
	</g>
</g>
<g id="dresslater_job_9">
	<g>
		<path d="M179.296,83.26c-15.167,0-27.505,11.299-27.505,25.188s12.338,25.191,27.505,25.191c15.169,0,27.507-11.303,27.507-25.191
			S194.465,83.26,179.296,83.26z M178.151,125.244c-1.896,0-3.438-1.412-3.438-3.146c0-1.737,1.542-3.149,3.438-3.149
			c1.896,0,3.438,1.413,3.438,3.149C181.589,123.832,180.047,125.244,178.151,125.244z M181.589,112.44v3.354
			c0,0.581-0.512,1.053-1.146,1.053h-4.584c-0.634,0-1.146-0.472-1.146-1.053v-5.248c0-2.313,2.058-4.196,4.583-4.196
			c2.528,0,4.585-1.887,4.585-4.198c0-2.315-2.057-4.199-4.585-4.199c-2.526,0-4.583,1.884-4.583,4.199v1.049
			c0,0.581-0.513,1.05-1.146,1.05h-4.583c-0.634,0-1.146-0.469-1.146-1.05v-1.049c0-5.788,5.142-10.496,11.46-10.496
			c6.32,0,11.461,4.708,11.461,10.496C190.758,107.19,186.884,111.458,181.589,112.44z"/>
	</g>
</g>
<g id="dresslater_gender_2">
	<g>
		<path d="M343.068,123.993c0.732,2.196-2.806-31.86-35.296-31.854c0,0-41.413-1.98-36.438,62.854c0,0-2.274,53.209,22.334,58.014
			c0,0-10.782-12.008-7.742-20.552c0,0,11.74-4.796,16.74-20.462c0,0-14.666-3.333-19.848-18.216c0,0-0.818-16.45,3.938-23.482
			c0,0,10.785,0.803,11.888,0c0,0,8.852-7.736,10.785-11.735c0,0,1.66,6.933-2.484,11.211h11.333c0,0,3.594-3.473,4.146-7.206
			c0,0,1.104,6.671-0.545,7.465h6.637c0,0,6.815,13.3,4.764,23.75c0,0-1.61,16.883-19.61,18.55c0,0,4.333,13.562,18.159,20.661
			c0,0-1.385,18.414-10.789,19.213c0,0,12.899,4.344,22.029-28.208C343.068,183.993,348.972,138.758,343.068,123.993"/>
	</g>
</g>
<g id="dresslater_gender_1">
	<path d="M282.443,146.612c-1.896-2.567-3.046-7.839-3.995-8.407c-0.945-0.572-1.446-5.604-0.996-6.844
		c0.446-1.231-1.248-3.466-1.497-5.32c-0.25-1.852,1.143-3.616,1.099-4.418c-0.044-0.8-0.547-6.175,1.598-10.261
		c1.132-2.153,4.396-5.555,7.735-7.028c2.992-1.318,6.146-0.813,6.338-1.142c0.403-0.696,2.752-5.033,4.396-4.563
		c-2.248,2.094-1.896,4.468-1.896,4.468s7.536-4.75,13.577-4.468c6.035,0.285,18.168,7.647,18.563,7.891
		c0.397,0.234-0.896-2.377-3.189-5.229c2.295,0.099,5.937,6.841,6.388,7.224c0.451,0.382,0.749,0.048,0-2.854
		c1.544,0.19,2.195,4.185,2.996,5.605c0.796,1.428,3.091,1.473,2.896,6.841c3.49,0.188,3.997,9.927,2.896,11.78
		c-0.452,6.363-1.572,9.029-2.695,11.496c-1.122,2.466-2.596,5.699-2.596,5.699s0.344-10.507-1.548-18.19
		c-1.327-5.391-4.371-8.651-6.737-9.121c-5.741-1.143-17.067-0.24-18.362,1.282c-2.905,1.009-17.134-3.616-20.065-1.428
		c-1.718,1.284-3.722,6.161-3.691,9.979c0.023,2.688,1.797,2.183,1.896,4.845c0.056,1.478-1.461,2.428-2.294,4.752
		C282.571,141.057,282.574,144.119,282.443,146.612z"/>
</g>
<g id="dresslater_age_l1">
	<path fill="#D9C489" d="M342.922,210.572c-0.444,0.771-1.539,0.972-2.442,0.451c-0.903-0.521-1.277-1.57-0.832-2.341l6.222-10.776
		l3.275,1.891L342.922,210.572z"/>
	
		<ellipse transform="matrix(0.866 0.5 -0.5 0.866 145.9957 -147.115)" fill="#D85C72" cx="347.524" cy="198.88" rx="7.622" ry="6.5"/>
	<path fill="#FFD26C" d="M343.782,200.215c-1.544-0.271-3.649-1.625-3.466-3.751c-0.336,1.309-0.202,2.708,0.337,4.021
		c0.931,0.447,1.968,0.759,3.204,0.72c2.054-0.063,3.43-1.435,3.636-2.334C347.003,199.541,345.642,200.542,343.782,200.215z
		 M349.479,202.517c-0.085,1.399-1.269,3.182-3.616,2.713c1.476,0.495,2.985,0.563,4.344,0.243c0.361-0.807,0.562-1.731,0.347-2.892
		c-0.355-1.925-2.044-3.396-3.057-3.714C348.298,199.422,349.578,200.831,349.479,202.517z M345.512,195.221
		c0.085-1.403,1.271-3.185,3.617-2.715c-1.474-0.492-2.985-0.563-4.346-0.241c-0.357,0.805-0.558,1.729-0.344,2.889
		c0.354,1.926,2.042,3.397,3.054,3.715C346.694,198.317,345.408,196.908,345.512,195.221z M351.205,197.524
		c1.547,0.271,3.652,1.627,3.467,3.75c0.337-1.304,0.199-2.708-0.335-4.021c-0.931-0.444-1.972-0.759-3.205-0.72
		c-2.059,0.065-3.432,1.438-3.639,2.334C347.99,198.198,349.351,197.197,351.205,197.524z"/>
	<path fill="#B04C5C" d="M343.47,197.241c-1.031-1.186-1.688-3.396,0.104-4.569c-1.275,0.573-2.253,1.518-2.833,2.669
		c0.4,0.887,0.996,1.765,2.021,2.555c1.707,1.313,3.871,1.387,4.729,0.977C346.578,198.954,344.71,198.666,343.47,197.241z
		 M346.275,202.402c-1.152,0.796-3.479,1.1-5.008-0.735c0.805,1.272,1.967,2.313,3.31,3.018c0.911-0.252,1.786-0.688,2.511-1.534
		c1.199-1.409,0.979-3.418,0.409-4.277C347.713,199.735,347.657,201.439,346.275,202.402z M348.718,195.34
		c1.149-0.798,3.479-1.102,5.008,0.732c-0.805-1.271-1.97-2.312-3.313-3.013c-0.908,0.251-1.782,0.687-2.509,1.534
		c-1.2,1.406-0.979,3.419-0.411,4.274C347.277,198.004,347.329,196.3,348.718,195.34z M351.523,200.499
		c1.033,1.186,1.688,3.398-0.104,4.568c1.275-0.573,2.253-1.519,2.836-2.669c-0.401-0.885-0.999-1.762-2.024-2.553
		c-1.705-1.316-3.87-1.39-4.729-0.979C348.408,198.786,350.281,199.073,351.523,200.499z"/>
</g>
<g id="dresslater_age1_l4">
	<path fill="#999999" d="M282.443,146.612c-1.896-2.567-3.046-7.839-3.995-8.407c-0.945-0.572-1.446-5.604-0.996-6.844
		c0.446-1.231-1.248-3.466-1.497-5.32c-0.25-1.852,1.143-3.616,1.099-4.418c-0.044-0.8-0.547-6.175,1.598-10.261
		c1.132-2.153,4.396-5.555,7.735-7.028c2.992-1.318,6.146-0.813,6.338-1.142c0.403-0.696,2.752-5.033,4.396-4.563
		c-2.248,2.094-1.896,4.468-1.896,4.468s7.536-4.75,13.577-4.468c6.035,0.285,18.168,7.647,18.563,7.891
		c0.397,0.234-0.896-2.377-3.189-5.229c2.295,0.099,5.937,6.841,6.388,7.224c0.451,0.382,0.749,0.048,0-2.854
		c1.544,0.19,2.195,4.185,2.996,5.605c0.796,1.428,3.091,1.473,2.896,6.841c3.49,0.188,3.997,9.927,2.896,11.78
		c-0.452,6.363-1.572,9.029-2.695,11.496c-1.122,2.466-2.596,5.699-2.596,5.699s0.344-10.507-1.548-18.19
		c-1.327-5.391-4.371-8.651-6.737-9.121c-5.741-1.143-17.067-0.24-18.362,1.282c-2.905,1.009-17.134-3.616-20.065-1.428
		c-1.718,1.284-3.722,6.161-3.691,9.979c0.023,2.688,1.797,2.183,1.896,4.845c0.056,1.478-1.461,2.428-2.294,4.752
		C282.571,141.057,282.574,144.119,282.443,146.612z"/>
</g>
<g id="dresslater_age1_l3">
	<path fill="#666666" d="M282.443,146.612c-1.896-2.567-3.046-7.839-3.995-8.407c-0.945-0.572-1.446-5.604-0.996-6.844
		c0.446-1.231-1.248-3.466-1.497-5.32c-0.25-1.852,1.143-3.616,1.099-4.418c-0.044-0.8-0.547-6.175,1.598-10.261
		c1.132-2.153,4.396-5.555,7.735-7.028c2.992-1.318,6.146-0.813,6.338-1.142c0.403-0.696,2.752-5.033,4.396-4.563
		c-2.248,2.094-1.896,4.468-1.896,4.468s7.536-4.75,13.577-4.468c6.035,0.285,18.168,7.647,18.563,7.891
		c0.397,0.234-0.896-2.377-3.189-5.229c2.295,0.099,5.937,6.841,6.388,7.224c0.451,0.382,0.749,0.048,0-2.854
		c1.544,0.19,2.195,4.185,2.996,5.605c0.796,1.428,3.091,1.473,2.896,6.841c3.49,0.188,3.997,9.927,2.896,11.78
		c-0.452,6.363-1.572,9.029-2.695,11.496c-1.122,2.466-2.596,5.699-2.596,5.699s0.344-10.507-1.548-18.19
		c-1.327-5.391-4.371-8.651-6.737-9.121c-5.741-1.143-17.067-0.24-18.362,1.282c-2.905,1.009-17.134-3.616-20.065-1.428
		c-1.718,1.284-3.722,6.161-3.691,9.979c0.023,2.688,1.797,2.183,1.896,4.845c0.056,1.478-1.461,2.428-2.294,4.752
		C282.571,141.057,282.574,144.118,282.443,146.612z"/>
</g>
<g id="dresslater_age2_l3">
	<g>
		<path fill="#666666" d="M345.731,123.888c0.733,2.193-5.43-31.504-37.92-31.499c0,0-43.938-0.336-38.967,64.499
			c0,0,0.254,51.563,24.862,56.367c0,0-10.782-12.008-7.742-20.552c0,0,11.738-4.796,16.738-20.463c0,0-14.664-3.333-19.846-18.216
			c0,0-0.818-16.45,3.938-23.482c0,0,10.785,0.803,11.888,0c0,0,8.852-7.736,10.785-11.735c0,0,1.66,6.933-2.484,11.211h11.332
			c0,0,3.596-3.473,4.146-7.206c0,0,1.104,6.671-0.548,7.465h6.642c0,0,6.813,13.3,4.762,23.75c0,0-1.611,16.883-19.611,18.55
			c0,0,4.333,13.562,18.16,20.661c0,0-1.385,18.414-10.789,19.213c0,0,12.9,4.345,22.03-28.208
			C343.107,184.244,352.344,152.821,345.731,123.888"/>
	</g>
</g>
<g id="dresslater_age2_l4">
	<g>
		<path fill="#999999" d="M345.42,123.889c0.73,2.193-5.433-31.504-37.92-31.499c0,0-43.941-0.336-38.967,64.499
			c0,0,0.254,51.563,24.859,56.37c0,0-10.782-12.011-7.742-20.554c0,0,11.741-4.797,16.741-20.463c0,0-14.667-3.333-19.846-18.216
			c0,0-0.821-16.45,3.938-23.482c0,0,10.785,0.803,11.888,0c0,0,8.854-7.736,10.785-11.735c0,0,1.66,6.933-2.481,11.211h11.332
			c0,0,3.596-3.472,4.143-7.206c0,0,1.107,6.671-0.545,7.465h6.639c0,0,6.816,13.3,4.765,23.75c0,0-1.611,16.883-19.611,18.55
			c0,0,4.333,13.562,18.16,20.661c0,0-1.385,18.414-10.789,19.213c0,0,12.898,4.346,22.03-28.208
			C342.796,184.244,352.031,152.821,345.42,123.889"/>
	</g>
</g>
</svg>
